<?xml version="1.0" encoding="utf-8"?>
<!-- Generator: Adobe Illustrator 27.2.0, SVG Export Plug-In . SVG Version: 6.00 Build 0)  -->
<svg version="1.1" id="Layer_1" xmlns="http://www.w3.org/2000/svg" xmlns:xlink="http://www.w3.org/1999/xlink" x="0px" y="0px"
	 viewBox="0 0 4215.3 470.7" style="enable-background:new 0 0 4215.3 470.7;" xml:space="preserve">
<style type="text/css">
	.st0{fill-rule:evenodd;clip-rule:evenodd;fill:#FD6234;}
	.st1{fill-rule:evenodd;clip-rule:evenodd;fill:#463C74;}
	.st2{fill-rule:evenodd;clip-rule:evenodd;fill:#FFC735;}
	.st3{fill-rule:evenodd;clip-rule:evenodd;fill:#B4D51E;}
	.st4{fill:#E5E0D5;}
</style>
<g id="Patterns">
	<g id="Aare" transform="translate(0.000000, -1.000000)">
		<g id="Shape" transform="translate(0.589219, 1.178782)">
			<path class="st0" d="M1025,352.6c0-12.6-10.2-22.9-22.9-22.9s-22.9,10.2-22.9,22.9c0,12.6,10.2,22.9,22.9,22.9
				S1025,365.3,1025,352.6z M1002.1,302.3c27.8,0,50.3,22.5,50.3,50.3c0,27.8-22.5,50.3-50.3,50.3c-27.8,0-50.3-22.5-50.3-50.3
				C951.8,324.8,974.3,302.3,1002.1,302.3z"/>
			<path class="st1" d="M1001.2,366.1c-7.6,0-13.7-6.1-13.7-13.7s6.1-13.7,13.7-13.7c7.6,0,13.7,6.1,13.7,13.7
				S1008.7,366.1,1001.2,366.1z"/>
			<path class="st1" d="M418.2,110.6c8.9-8.9,8.9-23.3,0-32.3s-23.4-8.9-32.3,0c-8.9,8.9-8.9,23.3,0,32.3c5.4,5.3,5.4,14,0,19.4
				c-5.4,5.3-14,5.3-19.4,0c-19.6-19.6-19.6-51.4,0-71c19.6-19.6,51.5-19.6,71.1,0c19.6,19.6,19.6,51.4,0,71c-5.4,5.3-14,5.3-19.4,0
				C412.8,124.6,412.8,115.9,418.2,110.6z"/>
			<path class="st0" d="M367.1,110.9c5.4-5.4,14-5.4,19.4,0c5.4,5.4,5.4,14,0,19.4c-5.4,5.4-14,5.4-19.4,0
				C361.7,125,361.7,116.3,367.1,110.9z"/>
			<path class="st2" d="M52.3,393.1C64.9,393,75,382.6,74.9,370c-0.2-12.6-10.5-22.7-23.2-22.6c-7.6,0.1-13.8-6-13.9-13.5
				c-0.1-7.6,6-13.8,13.6-13.9c27.8-0.4,50.7,21.9,51,49.7c0.4,27.8-21.9,50.6-49.7,51c-7.6,0.1-13.8-6-13.9-13.5
				C38.6,399.4,44.7,393.2,52.3,393.1z"/>
			<path class="st2" d="M577.2,69.8c-50.5,0-91.5,41-91.5,91.5c0,7.6-6.1,13.7-13.7,13.7s-13.7-6.1-13.7-13.7
				c0-65.7,53.3-119,119-119c7.6,0,13.7,6.1,13.7,13.7S584.8,69.8,577.2,69.8z"/>
			<path class="st3" d="M707.9,154.3c0-46.5-37.7-84.1-84.1-84.1c-7.6,0-13.7-6.1-13.7-13.7s6.1-13.7,13.7-13.7
				c61.6,0,111.6,50,111.6,111.6c0,7.6-6.1,13.7-13.7,13.7C714.1,168,707.9,161.9,707.9,154.3z"/>
			<path class="st2" d="M280.1,414.7c0-36.3-29.4-65.8-65.8-65.8c-7.6,0-13.7-6.1-13.7-13.7s6.1-13.7,13.7-13.7
				c51.5,0,93.2,41.7,93.2,93.2c0,7.6-6.1,13.7-13.7,13.7C286.2,428.4,280.1,422.3,280.1,414.7z"/>
			<path class="st0" d="M38.6,407c-0.1-7.6,6-13.8,13.5-13.9c7.6-0.1,13.8,6,13.9,13.5c0.1,7.6-6,13.8-13.5,13.9
				C44.9,420.7,38.7,414.6,38.6,407z"/>
			<path class="st3" d="M421.8,200.9c0,7.6,6.1,13.7,13.7,13.7c12.6,0,22.9,10.2,22.9,22.8v91.4c0,12.6-10.2,22.8-22.9,22.8
				c-7.6,0-13.7,6.1-13.7,13.7s6.1,13.7,13.7,13.7c14.4,0,27.4-6.1,36.6-15.8c9.2,9.7,22.2,15.8,36.6,15.8h42.1
				c27.8,0,50.3-22.5,50.3-50.3c0-7.6-6.1-13.7-13.7-13.7c-7.6,0-13.7,6.1-13.7,13.7c0,12.6-10.2,22.8-22.9,22.8h-42.1
				c-12.6,0-22.9-10.2-22.9-22.8v-91.4c0-27.8-22.5-50.3-50.3-50.3C427.9,187.2,421.8,193.3,421.8,200.9z"/>
			<path class="st4" d="M449.2,365.4c0-7.6-6.1-13.7-13.7-13.7c-12.6,0-22.9-10.2-22.9-22.9v-91.4c0-12.6,10.2-22.9,22.9-22.9
				c7.6,0,13.7-6.1,13.7-13.7c0-7.6-6.1-13.7-13.7-13.7c-27.8,0-50.3,22.5-50.3,50.3v91.4c0,1.1,0,2.2,0.1,3.3
				c-22.8,7-39.4,28.2-39.4,53.3v53c0,7.6,6.1,13.7,13.7,13.7s13.7-6.1,13.7-13.7v-53c0-13.2,9-24.3,21.3-27.4
				c9.1,12.7,24.1,21,40.9,21C443.1,379.2,449.2,373,449.2,365.4z"/>
			<path class="st1" d="M435.3,379.1c-12.6,0-22.9,10.2-22.9,22.9c0,12.6,10.2,22.9,22.9,22.9c12.6,0,22.9-10.2,22.9-22.9
				c0-7.6,6.1-13.7,13.7-13.7c7.6,0,13.7,6.1,13.7,13.7c0,27.8-22.5,50.3-50.3,50.3c-27.8,0-50.3-22.5-50.3-50.3
				s22.5-50.3,50.3-50.3c7.6,0,13.7,6.1,13.7,13.7C449,373,442.9,379.1,435.3,379.1z"/>
			<path class="st0" d="M435.5,379.1c-7.6,0-13.7-6.1-13.7-13.7s6.1-13.7,13.7-13.7c7.6,0,13.7,6.1,13.7,13.7
				S443.1,379.1,435.5,379.1z"/>
			<path class="st0" d="M435.5,214.6c-7.6,0-13.7-6.1-13.7-13.7s6.1-13.7,13.7-13.7c7.6,0,13.7,6.1,13.7,13.7
				S443.1,214.6,435.5,214.6z"/>
			<path class="st0" d="M359.6,452.3c-7.6,0-13.7-6.1-13.7-13.7c0-7.6,6.1-13.7,13.7-13.7c7.6,0,13.7,6.1,13.7,13.7
				C373.3,446.1,367.1,452.3,359.6,452.3z"/>
			<path class="st3" d="M935.7,353.4c0,27.8-22.5,50.3-50.3,50.3h-91.5c-27.8,0-50.3-22.5-50.3-50.3s22.5-50.3,50.3-50.3h29.3v-28.8
				c0-27.8,22.5-50.3,50.3-50.3h91.5c12.6,0,22.9-10.2,22.9-22.9v-42.1c0-12.6-10.2-22.9-22.9-22.9c-7.6,0-13.7-6.1-13.7-13.7
				c0-7.6,6.1-13.7,13.7-13.7c27.8,0,50.3,22.5,50.3,50.3v42.1c0,14.4-6.1,27.4-15.8,36.6c9.7,9.2,15.8,22.2,15.8,36.6v41.1
				c0,7.6-6.1,13.7-13.7,13.7c-7.6,0-13.7-6.1-13.7-13.7v-41.1c0-12.6-10.2-22.9-22.9-22.9h-91.5c-12.6,0-22.9,10.2-22.9,22.9v28.8
				h34.8C913.1,303.2,935.7,325.7,935.7,353.4z M793.9,330.6c-12.6,0-22.9,10.2-22.9,22.9c0,12.6,10.2,22.9,22.9,22.9h91.5
				c12.6,0,22.9-10.2,22.9-22.9c0-12.6-10.2-22.9-22.9-22.9H793.9z"/>
			<path class="st2" d="M730.3,221.7c15.6,6.3,33.3-1.1,39.5-16.5c6.3-15.4-1.2-33-16.8-39.4c-8.6-3.5-17.9-2.8-25.5,1.1
				c-6.7,3.5-15,0.8-18.5-5.9c-3.5-6.7-0.8-15,5.9-18.5c14.5-7.5,32.1-8.8,48.5-2.2c29.5,12,43.9,45.6,31.8,75.1
				c-12,29.5-45.8,43.5-75.3,31.5c-7-2.9-10.4-10.8-7.5-17.9C715.3,222.3,723.3,218.9,730.3,221.7z"/>
			<path class="st2" d="M935.4,356.3c0,34.8,28.2,63,63,63c7.6,0,13.7,6.1,13.7,13.7c0,7.6-6.1,13.7-13.7,13.7
				c-49.9,0-90.4-40.5-90.4-90.5c0-7.6,6.1-13.7,13.7-13.7C929.2,342.6,935.4,348.8,935.4,356.3z"/>
			<path class="st0" d="M921.7,369.3c-7.6,0-13.7-6.1-13.7-13.7c0-7.6,6.1-13.7,13.7-13.7c7.6,0,13.7,6.1,13.7,13.7
				C935.4,363.1,929.2,369.3,921.7,369.3z"/>
			<path class="st2" d="M421.8,301.2c0-12.6-10.2-22.8-22.9-22.8c-12.6,0-22.9,10.2-22.9,22.8c0,7.6-6.1,13.7-13.7,13.7
				c-7.6,0-13.7-6.1-13.7-13.7c0-27.7,22.5-50.1,50.3-50.1c27.8,0,50.3,22.5,50.3,50.1c0,7.6-6.1,13.7-13.7,13.7
				C427.9,314.8,421.8,308.7,421.8,301.2z"/>
			<path class="st1" d="M646.8,329.7c0-12.6-10.2-22.8-22.9-22.8s-22.9,10.2-22.9,22.8c0,7.6-6.1,13.7-13.7,13.7
				s-13.7-6.1-13.7-13.7c0-27.7,22.5-50.1,50.3-50.1s50.3,22.5,50.3,50.1c0,7.6-6.1,13.7-13.7,13.7
				C653,343.4,646.8,337.3,646.8,329.7z"/>
			<path class="st0" d="M435.5,314.8c-7.6,0-13.7-6.1-13.7-13.7c0-7.6,6.1-13.7,13.7-13.7c7.6,0,13.7,6.1,13.7,13.7
				C449.2,308.7,443.1,314.8,435.5,314.8z"/>
			<path class="st0" d="M531.4,228.3c-7.6,0-13.7-6.1-13.7-13.7c0-7.6,6.1-13.7,13.7-13.7s13.7,6.1,13.7,13.7
				C545.1,222.2,539,228.3,531.4,228.3z"/>
			<path class="st4" d="M869.6,69c-49,0-88.8,39.8-88.8,88.8c0,7.6-6.1,13.7-13.7,13.7c-7.6,0-13.7-6.1-13.7-13.7
				c0-64.2,52-116.3,116.2-116.3c7.6,0,13.7,6.1,13.7,13.7S877.2,69,869.6,69z"/>
			<path class="st0" d="M601.1,330.1c0,7.6-6.1,13.7-13.7,13.7c-7.6,0-13.7-6.1-13.7-13.7c0-7.6,6.1-13.7,13.7-13.7
				C594.9,316.4,601.1,322.5,601.1,330.1z"/>
			<path class="st2" d="M287.3,117.5c-12.6,0-22.9-10.2-22.9-22.9s10.2-22.9,22.9-22.9c12.6,0,22.9,10.2,22.9,22.9
				S300,117.5,287.3,117.5z M237,94.6c0,27.8,22.5,50.3,50.3,50.3c27.8,0,50.3-22.5,50.3-50.3c0-27.8-22.5-50.3-50.3-50.3
				C259.5,44.3,237,66.8,237,94.6z"/>
			<path class="st3" d="M13.1,155.9c7.6,0,13.7,6.1,13.7,13.7c0,12.6,10.2,22.9,22.8,22.9H141c12.6,0,22.8-10.2,22.8-22.9
				c0-7.6,6.1-13.7,13.7-13.7s13.7,6.1,13.7,13.7c0,27.8-22.5,50.3-50.2,50.3H51.5c0,0,0,0,0,0c-12.6,0-22.8,10.2-22.8,22.9v91.5
				c0,12.6,10.2,22.9,22.8,22.9c7.6,0,13.7,6.1,13.7,13.7s-6.1,13.7-13.7,13.7c-27.7,0-50.2-22.5-50.2-50.3v-91.5
				c0-14,5.7-26.6,14.9-35.7c-10.2-9.2-16.7-22.6-16.7-37.5C-0.6,162,5.5,155.9,13.1,155.9z"/>
			<path class="st4" d="M144.6,119.6c7.2-22.3,28.3-38.5,53.1-38.5h53c7.6,0,13.7,6.1,13.7,13.7c0,7.6-6.1,13.7-13.7,13.7h-53
				c-13,0-23.9,8.7-27.3,20.5c12.6,9.1,20.8,23.9,20.8,40.7c0,7.6-6.1,13.7-13.7,13.7s-13.7-6.1-13.7-13.7
				c0-12.6-10.2-22.8-22.8-22.8H49.6c-12.6,0-22.8,10.2-22.8,22.8c0,7.6-6.1,13.7-13.7,13.7c-7.6,0-13.7-6.1-13.7-13.7
				c0-27.7,22.5-50.1,50.2-50.1H141C142.2,119.4,143.4,119.5,144.6,119.6L144.6,119.6z"/>
			<path class="st1" d="M191.3,169.8c0-12.6,10.2-22.9,22.9-22.9c12.6,0,22.9,10.2,22.9,22.9s-10.2,22.9-22.9,22.9
				c-7.6,0-13.7,6.1-13.7,13.7c0,7.6,6.1,13.7,13.7,13.7c27.8,0,50.3-22.5,50.3-50.3s-22.5-50.3-50.3-50.3s-50.3,22.5-50.3,50.3
				c0,7.6,6.1,13.7,13.7,13.7C185.1,183.5,191.3,177.3,191.3,169.8z"/>
			<path class="st0" d="M191.2,170c0-7.6-6.1-13.7-13.7-13.7s-13.7,6.1-13.7,13.7c0,7.6,6.1,13.7,13.7,13.7S191.2,177.5,191.2,170z"
				/>
			<path class="st1" d="M26.8,169.6c0-7.6-6.1-13.7-13.7-13.7S-0.6,162-0.6,169.6c0,7.6,6.1,13.7,13.7,13.7S26.8,177.1,26.8,169.6z"
				/>
			<path class="st1" d="M177.5,253c0-7.6-6.1-13.7-13.7-13.7s-13.7,6.1-13.7,13.7c0,7.6,6.1,13.7,13.7,13.7S177.5,260.5,177.5,253z"
				/>
			<path class="st1" d="M177.5,289.4c0-7.6-6.1-13.7-13.7-13.7s-13.7,6.1-13.7,13.7c0,7.6,6.1,13.7,13.7,13.7S177.5,297,177.5,289.4
				z"/>
			<path class="st1" d="M296.5,305.1c0-7.6-6.1-13.7-13.7-13.7c-7.6,0-13.7,6.1-13.7,13.7c0,7.6,6.1,13.7,13.7,13.7
				C290.4,318.8,296.5,312.6,296.5,305.1z"/>
			<path class="st1" d="M334.1,303.1c0-7.6-6.1-13.7-13.7-13.7c-7.6,0-13.7,6.1-13.7,13.7c0,7.6,6.1,13.7,13.7,13.7
				C328,316.8,334.1,310.7,334.1,303.1z"/>
			<path class="st1" d="M334.1,341.5c0-7.6-6.1-13.7-13.7-13.7c-7.6,0-13.7,6.1-13.7,13.7s6.1,13.7,13.7,13.7
				C328,355.2,334.1,349,334.1,341.5z"/>
			<path class="st0" d="M264.4,94.8c0-7.6-6.1-13.7-13.7-13.7c-7.6,0-13.7,6.1-13.7,13.7c0,7.6,6.1,13.7,13.7,13.7
				C258.3,108.5,264.4,102.3,264.4,94.8z"/>
			<path class="st0" d="M301.2,94.8c0-7.6-6.1-13.7-13.7-13.7c-7.6,0-13.7,6.1-13.7,13.7c0,7.6,6.1,13.7,13.7,13.7
				C295.1,108.5,301.2,102.3,301.2,94.8z"/>
			<path class="st2" d="M131.8,155.8c-12.6,0-22.8-10.2-22.8-22.9c0-12.6,10.2-22.9,22.8-22.9c7.6,0,13.7-6.1,13.7-13.7
				s-6.1-13.7-13.7-13.7c-27.7,0-50.1,22.5-50.1,50.3c0,27.8,22.4,50.3,50.1,50.3c7.6,0,13.7-6.1,13.7-13.7
				C145.4,162,139.3,155.8,131.8,155.8z"/>
			<path class="st0" d="M63.6,294.1c34.8,0,63,28.2,63,63c0,7.6,6.1,13.7,13.7,13.7s13.7-6.1,13.7-13.7c0-50-40.5-90.5-90.4-90.5
				c-7.6,0-13.7,6.1-13.7,13.7S56,294.1,63.6,294.1z"/>
			<path class="st0" d="M66,370.8c0-7.6-6.1-13.7-13.7-13.7s-13.7,6.1-13.7,13.7c0,7.6,6.1,13.7,13.7,13.7S66,378.4,66,370.8z"/>
			<path class="st2" d="M630.1,166c-15.5,0-28.2,12.6-28.2,28.4c0,15.8,12.7,28.4,28.2,28.4c56.3,0,101.7,45.8,101.7,102.2
				c0,7.6-6.1,13.7-13.7,13.7c-7.6,0-13.7-6.1-13.7-13.7c0-41.4-33.3-74.7-74.3-74.7c-30.8,0-55.6-25.1-55.6-55.8
				c0-30.7,24.8-55.8,55.6-55.8c7.6,0,13.7,6.1,13.7,13.7S637.7,166,630.1,166z"/>
			<path class="st0" d="M704,325.1c0,41.6-33.3,75.1-74,75.1c-7.6,0-13.7,6.1-13.7,13.7c0,7.6,6.1,13.7,13.7,13.7
				c56.1,0,101.4-46.1,101.4-102.6c0-7.6-6.1-13.7-13.7-13.7C710.2,311.3,704,317.5,704,325.1z"/>
			<path class="st1" d="M717.7,338.7c-7.6,0-13.7-6.1-13.7-13.7c0-7.6,6.1-13.7,13.7-13.7c7.6,0,13.7,6.1,13.7,13.7
				C731.4,332.6,725.3,338.7,717.7,338.7z"/>
			<path class="st3" d="M531.4,242c7.6,0,13.7,6.1,13.7,13.7v59.5c0,7.6-6.1,13.7-13.7,13.7s-13.7-6.1-13.7-13.7v-59.5
				C517.7,248.2,523.8,242,531.4,242z"/>
			<path class="st3" d="M306.7,164.9c0,51-41.3,92.4-92.3,92.4c-7.6,0-13.7,6.1-13.7,13.7s6.1,13.7,13.7,13.7
				c66.1,0,119.8-53.6,119.8-119.8c0-7.6-6.1-13.7-13.7-13.7S306.7,157.3,306.7,164.9z"/>
			<path class="st4" d="M758.1,194.2c0,7.6-6.1,13.7-13.7,13.7H628.1c-7.6,0-13.7-6.1-13.7-13.7s6.1-13.7,13.7-13.7h116.2
				C751.9,180.5,758.1,186.7,758.1,194.2z"/>
			<path class="st0" d="M334.1,164.9c0-7.6-6.1-13.7-13.7-13.7c-7.6,0-13.7,6.1-13.7,13.7c0,7.6,6.1,13.7,13.7,13.7
				C328,178.6,334.1,172.4,334.1,164.9z"/>
			<path class="st1" d="M730.6,164.8c-5.4,5.4-14,5.4-19.4,0c-5.4-5.4-5.4-14,0-19.4c5.3-5.4,14-5.4,19.4,0
				C735.9,150.7,735.9,159.4,730.6,164.8z"/>
			<path class="st1" d="M637.4,123.7c-5.4,5.4-14,5.4-19.4,0c-5.4-5.4-5.4-14,0-19.4c5.3-5.4,14-5.4,19.4,0
				C642.7,109.6,642.7,118.3,637.4,123.7z"/>
			<path class="st0" d="M-0.6,56.4c0-7.6,6.1-13.7,13.7-13.7h63c7.6,0,13.7,6.1,13.7,13.7s-6.1,13.7-13.7,13.7h-63
				C5.5,70.1-0.6,64-0.6,56.4z"/>
			<path class="st0" d="M587.4,129.6c-23.2,0-42,18.8-42,42c0,7.6-6.1,13.7-13.7,13.7c-7.6,0-13.7-6.1-13.7-13.7
				c0-38.3,31-69.3,69.3-69.3c7.6,0,13.7,6.1,13.7,13.7S595,129.6,587.4,129.6z"/>
			<path class="st1" d="M522.1,161.8c5.3-5.4,14-5.4,19.4,0c5.4,5.4,5.4,14,0,19.4s-14,5.4-19.4,0
				C516.8,175.9,516.8,167.2,522.1,161.8z"/>
			<path class="st0" d="M758.1,194.2c0,7.6-6.1,13.7-13.6,13.8c-7.6,0-13.7-6.1-13.8-13.6c0-7.6,6.1-13.7,13.6-13.8
				C751.9,180.5,758,186.6,758.1,194.2z"/>
			<path class="st0" d="M883.3,55.2c0,7.6-6.1,13.7-13.6,13.8c-7.6,0-13.7-6.1-13.8-13.6c0-7.6,6.1-13.7,13.6-13.8
				C877.1,41.5,883.3,47.6,883.3,55.2z"/>
			<path class="st0" d="M758.1,56.3c0,7.6-6.1,13.7-13.6,13.8c-7.6,0-13.7-6.1-13.8-13.6c0-7.6,6.1-13.7,13.6-13.8
				C751.9,42.7,758,48.8,758.1,56.3z"/>
			<path class="st0" d="M758.1,92.8c0,7.6-6.1,13.7-13.6,13.8c-7.6,0-13.7-6.1-13.8-13.6c0-7.6,6.1-13.7,13.6-13.8
				C751.9,79.1,758,85.2,758.1,92.8z"/>
			<path class="st1" d="M892.3,157.6c0-12.6-10.2-22.9-22.9-22.9c-12.6,0-22.9,10.2-22.9,22.9c0,12.6,10.2,22.9,22.9,22.9
				c7.6,0,13.7,6.1,13.7,13.7s-6.1,13.7-13.7,13.7c-27.8,0-50.3-22.5-50.3-50.3c0-27.8,22.5-50.3,50.3-50.3s50.3,22.5,50.3,50.3
				c0,7.6-6.1,13.7-13.7,13.7C898.4,171.3,892.3,165.2,892.3,157.6z"/>
			<path class="st4" d="M962.8,63.1C950.2,63.1,940,73.3,940,86s10.2,22.9,22.8,22.9c7.5,0,13.7,6.1,13.7,13.7
				c0,7.6-6.1,13.7-13.7,13.7c-27.7,0-50.1-22.5-50.1-50.3s22.4-50.3,50.1-50.3c7.5,0,13.7,6.1,13.7,13.7
				C976.5,57,970.4,63.1,962.8,63.1z"/>
			<path class="st0" d="M884.1,194.2c0,7.6-6.1,13.7-13.7,13.7c-7.6,0-13.7-6.1-13.7-13.7s6.1-13.7,13.7-13.7
				C878,180.5,884.1,186.7,884.1,194.2z"/>
			<path class="st1" d="M977.3,122.6c0,7.6-6.1,13.7-13.7,13.7c-7.6,0-13.7-6.1-13.7-13.7c0-7.6,6.1-13.7,13.7-13.7
				C971.1,108.9,977.3,115,977.3,122.6z"/>
			<path class="st1" d="M920.9,194.2c0,7.6-6.1,13.7-13.7,13.7c-7.6,0-13.7-6.1-13.7-13.7s6.1-13.7,13.7-13.7
				C914.8,180.5,920.9,186.7,920.9,194.2z"/>
			<path class="st1" d="M957.3,194.2c0,7.6-6.1,13.7-13.7,13.7c-7.6,0-13.7-6.1-13.7-13.7s6.1-13.7,13.7-13.7
				C951.2,180.5,957.3,186.7,957.3,194.2z"/>
			<path class="st0" d="M978.4,85.4c0,7.6-6.1,13.7-13.7,13.7S951,92.9,951,85.4c0-7.6,6.1-13.7,13.7-13.7S978.4,77.8,978.4,85.4z"
				/>
			<path class="st0" d="M1014.9,85.4c0,7.6-6.1,13.7-13.7,13.7c-7.6,0-13.7-6.1-13.7-13.7c0-7.6,6.1-13.7,13.7-13.7
				C1008.7,71.7,1014.9,77.8,1014.9,85.4z"/>
			<path class="st0" d="M1051.7,85.4c0,7.6-6.1,13.7-13.7,13.7s-13.7-6.1-13.7-13.7c0-7.6,6.1-13.7,13.7-13.7
				S1051.7,77.8,1051.7,85.4z"/>
			<path class="st1" d="M1001.5,329.7c-7.6,0-13.7-6.1-13.7-13.7c0-7.6,6.1-13.7,13.7-13.7c7.6,0,13.7,6.1,13.7,13.7
				C1015.2,323.6,1009.1,329.7,1001.5,329.7z"/>
			<path class="st2" d="M1218,443.1c0-7.6,6.1-13.7,13.7-13.7h82.2c7.6,0,13.7,6.1,13.7,13.7c0,7.6-6.1,13.7-13.7,13.7h-82.2
				C1224.2,456.8,1218,450.7,1218,443.1z"/>
			<path class="st3" d="M1355.1,101c0,27.8-22.5,50.3-50.2,50.3h-91.3c-27.7,0-50.2-22.5-50.2-50.3s22.5-50.3,50.2-50.3h91.3
				C1332.6,50.7,1355.1,73.3,1355.1,101z M1304.8,123.9c12.6,0,22.8-10.2,22.8-22.9s-10.2-22.9-22.8-22.9h-91.3
				c-12.6,0-22.8,10.2-22.8,22.9s10.2,22.9,22.8,22.9H1304.8z"/>
			<path class="st3" d="M1111.6,384.3c0,7.6,6.1,13.7,13.7,13.7h42.5c14.4,0,27.4-6.1,36.5-15.8c9.2,9.7,22.1,15.8,36.5,15.8h42
				c27.8,0,50.3-22.5,50.3-50.3c0-7.6-6.1-13.7-13.7-13.7c-7.6,0-13.7,6.1-13.7,13.7c0,12.6-10.2,22.8-22.8,22.8h-42
				c-12.6,0-22.8-10.2-22.8-22.8v-92.3c0-27.2-22.1-49.3-49.3-49.3v27.4c12.1,0,21.9,9.8,21.9,21.9v92.3c0,12.6-10.2,22.8-22.8,22.8
				h-42.5C1117.7,370.6,1111.6,376.8,1111.6,384.3z"/>
			<path class="st4" d="M1289.5,273.9c12.6,0,22.9-10.2,22.9-22.9c0-12.6-10.2-22.9-22.9-22.9c-12.6,0-22.9,10.2-22.9,22.9
				c0,7.6-6.1,13.7-13.7,13.7c-7.6,0-13.7-6.1-13.7-13.7c0-27.8,22.5-50.3,50.3-50.3c27.8,0,50.3,22.5,50.3,50.3
				c0,27.8-22.5,50.3-50.3,50.3c-7.6,0-13.7-6.1-13.7-13.7C1275.8,280,1281.9,273.9,1289.5,273.9z"/>
			<path class="st4" d="M1257.2,87.5c16.9,0,30.4-13.6,30.4-30.2s-13.6-30.2-30.4-30.2c-9.3,0-17.6,4.1-23.2,10.7
				c-4.9,5.8-13.6,6.4-19.4,1.5c-5.8-4.9-6.5-13.6-1.5-19.3c10.6-12.4,26.5-20.3,44.1-20.3c31.9,0,57.9,25.7,57.9,57.6
				s-26,57.6-57.9,57.6c-7.6,0-13.7-6.1-13.7-13.7C1243.5,93.7,1249.6,87.5,1257.2,87.5z"/>
			<path class="st0" d="M1168.7,233.6c-7.6,0-13.7-6.1-13.7-13.7c0-7.6,6.1-13.7,13.7-13.7s13.7,6.1,13.7,13.7
				C1182.4,227.5,1176.3,233.6,1168.7,233.6z"/>
			<path class="st2" d="M1129.5,277.6c0-12.6-10.2-22.9-22.9-22.9c-12.6,0-22.9,10.2-22.9,22.9c0,12.6,10.2,22.9,22.9,22.9
				C1119.3,300.5,1129.5,290.3,1129.5,277.6z M1106.7,227.3c27.8,0,50.3,22.5,50.3,50.3c0,27.8-22.5,50.3-50.3,50.3
				c-27.8,0-50.3-22.5-50.3-50.3C1056.4,249.9,1078.9,227.3,1106.7,227.3z"/>
			<path class="st4" d="M1148.8,159.6c-15.6,0-28.2,12.7-28.2,28.4v53c0,7.6-6.1,13.7-13.7,13.7s-13.7-6.1-13.7-13.7v-53
				c0-30.8,24.9-55.8,55.6-55.8V159.6z"/>
			<path class="st0" d="M1106.9,254.7c-7.6,0-13.7-6.1-13.7-13.7c0-7.6,6.1-13.7,13.7-13.7s13.7,6.1,13.7,13.7
				C1120.6,248.6,1114.4,254.7,1106.9,254.7z"/>
			<path class="st0" d="M1106.5,291.2c-7.6,0-13.7-6.1-13.7-13.7c0-7.6,6.1-13.7,13.7-13.7s13.7,6.1,13.7,13.7
				C1120.2,285,1114,291.2,1106.5,291.2z"/>
			<path class="st2" d="M1176,115.7c-12.6,0-22.9,10.2-22.9,22.9s10.2,22.9,22.9,22.9c50,0,90.6,40.5,90.6,90.5
				c0,7.6-6.1,13.7-13.7,13.7c-7.6,0-13.7-6.1-13.7-13.7c0-34.8-28.3-63.1-63.1-63.1c-27.8,0-50.3-22.5-50.3-50.3
				s22.5-50.3,50.3-50.3c7.6,0,13.7,6.1,13.7,13.7C1189.7,109.6,1183.6,115.7,1176,115.7z"/>
			<path class="st1" d="M1378.9,348c0-12.6-10.2-22.8-22.9-22.8s-22.9,10.2-22.9,22.8c0,7.6-6.1,13.7-13.7,13.7
				c-7.6,0-13.7-6.1-13.7-13.7c0-27.7,22.5-50.1,50.3-50.1s50.3,22.5,50.3,50.1c0,7.6-6.1,13.7-13.7,13.7
				C1385,361.6,1378.9,355.5,1378.9,348z"/>
			<path class="st4" d="M1355.1,104c0,34.8,28.2,63,63,63c7.6,0,13.7,6.1,13.7,13.7c0,7.6-6.1,13.7-13.7,13.7
				c-49.9,0-90.4-40.5-90.4-90.5c0-7.6,6.1-13.7,13.7-13.7S1355.1,96.4,1355.1,104z"/>
			<path class="st0" d="M1252.9,265.7c-7.6,0-13.7-6.1-13.7-13.7c0-7.6,6.1-13.7,13.7-13.7s13.7,6.1,13.7,13.7
				C1266.6,259.6,1260.4,265.7,1252.9,265.7z"/>
			<path class="st0" d="M1319.4,361.6c-7.6,0-13.7-6.1-13.7-13.7c0-7.6,6.1-13.7,13.7-13.7c7.6,0,13.7,6.1,13.7,13.7
				C1333.1,355.5,1327,361.6,1319.4,361.6z"/>
			<path class="st0" d="M1124.9,398.1c-7.6,0-13.7-6.1-13.7-13.7c0-7.6,6.1-13.7,13.7-13.7s13.7,6.1,13.7,13.7
				C1138.6,391.9,1132.4,398.1,1124.9,398.1z"/>
			<path class="st1" d="M1252.9,302.1c-7.6,0-13.7-6.1-13.7-13.7s6.1-13.7,13.7-13.7s13.7,6.1,13.7,13.7S1260.4,302.1,1252.9,302.1z
				"/>
			<path class="st1" d="M1252.9,338.9c-7.6,0-13.7-6.1-13.7-13.7c0-7.6,6.1-13.7,13.7-13.7s13.7,6.1,13.7,13.7
				C1266.6,332.8,1260.4,338.9,1252.9,338.9z"/>
			<path class="st0" d="M1356.2,366.3c-7.6,0-13.7-6.1-13.7-13.7c0-7.6,6.1-13.7,13.7-13.7c7.6,0,13.7,6.1,13.7,13.7
				C1369.9,360.2,1363.8,366.3,1356.2,366.3z"/>
			<path class="st0" d="M1356.2,402.7c-7.6,0-13.7-6.1-13.7-13.7c0-7.6,6.1-13.7,13.7-13.7c7.6,0,13.7,6.1,13.7,13.7
				C1369.9,396.6,1363.8,402.7,1356.2,402.7z"/>
			<path class="st0" d="M1341.3,117.7c-7.6,0-13.7-6.1-13.7-13.7c0-7.6,6.1-13.7,13.7-13.7s13.7,6.1,13.7,13.7
				C1355.1,111.5,1348.9,117.7,1341.3,117.7z"/>
			<path class="st0" d="M1176.9,115.7c-7.6,0-13.7-6.1-13.7-13.7c0-7.6,6.1-13.7,13.7-13.7s13.7,6.1,13.7,13.7
				C1190.6,109.6,1184.5,115.7,1176.9,115.7z"/>
			<path class="st2" d="M1440.4,99.5c0-12.6-10.2-22.9-22.9-22.9c-12.6,0-22.9,10.2-22.9,22.9c0,12.6,10.2,22.9,22.9,22.9
				C1430.1,122.3,1440.4,112.1,1440.4,99.5z M1417.5,49.2c27.8,0,50.3,22.5,50.3,50.3c0,27.8-22.5,50.3-50.3,50.3
				c-27.8,0-50.3-22.5-50.3-50.3C1367.2,71.7,1389.7,49.2,1417.5,49.2z"/>
			<path class="st4" d="M1822.5,95.6c0-12.6,10.2-22.9,22.9-22.9c12.6,0,22.9,10.2,22.9,22.9s-10.2,22.9-22.9,22.9
				c-7.6,0-13.7,6.1-13.7,13.7c0,7.6,6.1,13.7,13.7,13.7c27.8,0,50.3-22.5,50.3-50.3s-22.5-50.3-50.3-50.3s-50.3,22.5-50.3,50.3
				c0,7.6,6.1,13.7,13.7,13.7C1816.3,109.3,1822.5,103.1,1822.5,95.6z"/>
			<path class="st1" d="M1417.3,113c-7.6,0-13.7-6.1-13.7-13.7c0-7.6,6.1-13.7,13.7-13.7c7.6,0,13.7,6.1,13.7,13.7
				C1431,106.8,1424.9,113,1417.3,113z"/>
			<path class="st4" d="M1359,428.6c34.8,0,63-28.2,63-63c0-7.6,6.1-13.7,13.7-13.7s13.7,6.1,13.7,13.7c0,50-40.5,90.5-90.4,90.5
				c-7.6,0-13.7-6.1-13.7-13.7C1345.3,434.7,1351.4,428.6,1359,428.6z"/>
			<path class="st3" d="M1497.9,104.7c40.4,0,73.2-32.8,73.2-73.2c0-7.6,6.1-13.7,13.7-13.7s13.7,6.1,13.7,13.7
				c0,55.6-45,100.6-100.6,100.6c-7.6,0-13.7-6.1-13.7-13.7C1484.2,110.9,1490.4,104.7,1497.9,104.7z"/>
			<path class="st0" d="M1796.6,133c0,7.6,6.1,13.7,13.7,13.7s13.7-6.1,13.7-13.7c0-7.6-6.1-13.7-13.7-13.7S1796.6,125.4,1796.6,133
				z"/>
			<path class="st0" d="M1760.2,133c0,7.6,6.1,13.7,13.7,13.7s13.7-6.1,13.7-13.7c0-7.6-6.1-13.7-13.7-13.7S1760.2,125.4,1760.2,133
				z"/>
			<path class="st3" d="M2028.9,456c-27.8,0-50.3-22.5-50.3-50.3v-91.4c0-27.8,22.5-50.3,50.3-50.3s50.3,22.5,50.3,50.3v91.4
				C2079.2,433.5,2056.7,456,2028.9,456z M2051.8,405.8v-91.4c0-12.6-10.2-22.8-22.9-22.8c-12.6,0-22.9,10.2-22.9,22.8v91.4
				c0,12.6,10.2,22.8,22.9,22.8C2041.6,428.6,2051.8,418.4,2051.8,405.8z"/>
			<path class="st4" d="M2042.9,277.9c0-27.7,22.6-50.2,50.4-50.2c7.6,0,13.7-6.1,13.7-13.7c0-7.6-6.2-13.7-13.7-13.7
				c-43,0-77.9,34.7-77.9,77.6c0,7.6,6.2,13.7,13.7,13.7S2042.9,285.4,2042.9,277.9z"/>
			<path class="st0" d="M2042.8,277.8c0-7.6-6.1-13.7-13.7-13.7s-13.7,6.1-13.7,13.7c0,7.6,6.1,13.7,13.7,13.7
				S2042.8,285.4,2042.8,277.8z"/>
			<path class="st2" d="M1906.4,382.8c-12.6,0-22.9,10.2-22.9,22.9c0,12.6,10.2,22.9,22.9,22.9c12.6,0,22.9-10.2,22.9-22.9
				C1929.3,393.1,1919,382.8,1906.4,382.8z M1856.1,405.7c0-27.8,22.5-50.3,50.3-50.3c27.8,0,50.3,22.5,50.3,50.3
				s-22.5,50.3-50.3,50.3C1878.6,456,1856.1,433.5,1856.1,405.7z"/>
			<path class="st4" d="M1632.2,317c7.6,0,13.7,6.2,13.7,13.7c0,12.6,10.2,22.9,22.8,22.9h91.4c12.6,0,22.8-10.3,22.8-22.9
				c0-7.6,6.1-13.7,13.7-13.7s13.7,6.2,13.7,13.7c0,16.9-8.3,31.8-21,40.9c3.2,11.8,14.1,20.4,27.4,20.4h53
				c7.6,0,13.7,6.2,13.7,13.7s-6.1,13.7-13.7,13.7h-53c-24.8,0-46.1-15.9-53.2-38.6c-1.1,0.1-2.3,0.1-3.4,0.1h-91.4
				c-27.8,0-50.3-22.6-50.3-50.4C1618.5,323.1,1624.6,317,1632.2,317z"/>
			<path class="st3" d="M1519.7,153.3c27.8,0,50.3,22.5,50.3,50.3v91.4c0,27.8-22.5,50.3-50.3,50.3c-27.8,0-50.3-22.5-50.3-50.3
				v-91.4C1469.4,175.8,1491.9,153.3,1519.7,153.3z M1542.5,203.6c0-12.6-10.2-22.8-22.9-22.8c-12.6,0-22.9,10.2-22.9,22.8v91.4
				c0,12.6,10.2,22.8,22.9,22.8c12.6,0,22.9-10.2,22.9-22.8V203.6z"/>
			<path class="st3" d="M1632.2,344.4c7.6,0,13.7-6.1,13.7-13.7c0-12.6,10.2-22.9,22.8-22.9l0,0h91.3c12.6,0,22.8,10.2,22.8,22.9
				c0,7.6,6.1,13.7,13.7,13.7s13.7-6.1,13.7-13.7c0-14.4-6.1-27.4-15.8-36.6c9.7-9.2,15.8-22.2,15.8-36.6v-42.1
				c0-27.8-22.5-50.3-50.2-50.3c-7.6,0-13.7,6.1-13.7,13.7c0,7.6,6.1,13.7,13.7,13.7c12.6,0,22.8,10.2,22.8,22.9v42.1
				c0,12.6-10.2,22.9-22.8,22.9h-91.3c0,0,0,0,0,0c-27.7,0-50.2,22.5-50.2,50.3C1618.5,338.3,1624.6,344.4,1632.2,344.4z"/>
			<path class="st1" d="M1810.4,330.5c0,12.6,10.2,22.9,22.9,22.9c12.6,0,22.9-10.2,22.9-22.9s-10.2-22.9-22.9-22.9
				c-7.6,0-13.7-6.1-13.7-13.7c0-7.6,6.1-13.7,13.7-13.7c27.8,0,50.3,22.5,50.3,50.3s-22.5,50.3-50.3,50.3
				c-27.8,0-50.3-22.5-50.3-50.3c0-7.6,6.1-13.7,13.7-13.7S1810.4,322.9,1810.4,330.5z"/>
			<path class="st1" d="M1693.6,218.1c0-12.6-10.2-22.9-22.9-22.9c-12.6,0-22.9,10.2-22.9,22.9s10.2,22.9,22.9,22.9
				c7.6,0,13.7,6.1,13.7,13.7c0,7.6-6.1,13.7-13.7,13.7c-27.8,0-50.3-22.5-50.3-50.3s22.5-50.3,50.3-50.3
				c27.8,0,50.3,22.5,50.3,50.3c0,7.6-6.1,13.7-13.7,13.7C1699.8,231.8,1693.6,225.7,1693.6,218.1z"/>
			<path class="st0" d="M1506.2,292.3c0-16.9-13.6-30.4-30.1-30.4c-16.6,0-30.1,13.6-30.1,30.4c0,9.3,4.1,17.6,10.7,23.2
				c5.8,4.9,6.4,13.6,1.5,19.4c-4.9,5.8-13.6,6.5-19.3,1.5c-12.4-10.6-20.3-26.5-20.3-44.1c0-31.9,25.7-57.9,57.5-57.9
				s57.5,26,57.5,57.9c0,7.6-6.1,13.7-13.7,13.7C1512.3,306,1506.2,299.9,1506.2,292.3z"/>
			<path class="st0" d="M1810.3,330.3c0,7.6-6.1,13.7-13.7,13.7s-13.7-6.1-13.7-13.7c0-7.6,6.1-13.7,13.7-13.7
				S1810.3,322.7,1810.3,330.3z"/>
			<path class="st0" d="M1645.9,330.7c0,7.6-6.1,13.7-13.7,13.7s-13.7-6.1-13.7-13.7s6.1-13.7,13.7-13.7S1645.9,323.1,1645.9,330.7z
				"/>
			<path class="st0" d="M1883.5,405.9c0,7.6-6.1,13.7-13.7,13.7s-13.7-6.1-13.7-13.7s6.1-13.7,13.7-13.7S1883.5,398.3,1883.5,405.9z
				"/>
			<path class="st0" d="M1920.3,405.5c0,7.6-6.1,13.7-13.7,13.7c-7.6,0-13.7-6.1-13.7-13.7c0-7.6,6.1-13.7,13.7-13.7
				C1914.2,391.8,1920.3,397.9,1920.3,405.5z"/>
			<path class="st2" d="M1732.8,344.4c-12.6,0-22.8,10.2-22.8,22.9c0,12.6,10.2,22.9,22.8,22.9c7.6,0,13.7,6.1,13.7,13.7
				s-6.1,13.7-13.7,13.7c-27.7,0-50.1-22.5-50.1-50.3c0-27.8,22.4-50.3,50.1-50.3c7.6,0,13.7,6.1,13.7,13.7
				C1746.5,338.3,1740.4,344.4,1732.8,344.4z"/>
			<path class="st2" d="M1761,99.3c-17.4,0-32,14.5-32,32.9c0,18.4,14.6,32.9,32,32.9c7.6,0,13.7,6.1,13.7,13.7
				c0,7.6-6.1,13.7-13.7,13.7c-33.1,0-59.5-27.3-59.5-60.3s26.4-60.3,59.5-60.3c7.6,0,13.7,6.1,13.7,13.7S1768.5,99.3,1761,99.3z"/>
			<path class="st2" d="M1670.6,268.5c-34.8,0-63.1,28.3-63.1,63.2c0,27.8-22.5,50.3-50.3,50.3s-50.3-22.5-50.3-50.3
				c0-7.6,6.1-13.7,13.7-13.7c7.6,0,13.7,6.1,13.7,13.7c0,12.6,10.2,22.9,22.9,22.9c12.6,0,22.9-10.2,22.9-22.9
				c0-50,40.5-90.6,90.5-90.6c7.6,0,13.7,6.1,13.7,13.7C1684.3,262.3,1678.1,268.5,1670.6,268.5z"/>
			<path class="st4" d="M1522.6,153.3c57.5,0,104.1-46.6,104.1-104.2c0-7.6,6.1-13.7,13.7-13.7c7.6,0,13.7,6.1,13.7,13.7
				c0,72.7-58.9,131.6-131.5,131.6c-7.6,0-13.7-6.1-13.7-13.7C1508.9,159.5,1515,153.3,1522.6,153.3z"/>
			<path class="st0" d="M1902.7,320.5c0-34.8-28.2-63-63-63c-7.6,0-13.7-6.1-13.7-13.7c0-7.6,6.1-13.7,13.7-13.7
				c49.9,0,90.4,40.5,90.4,90.5c0,7.6-6.1,13.7-13.7,13.7C1908.8,334.2,1902.7,328.1,1902.7,320.5z"/>
			<path class="st3" d="M1084.6,365.5c0,34.8,28.2,63,63,63c7.6,0,13.7,6.1,13.7,13.7c0,7.6-6.1,13.7-13.7,13.7
				c-49.9,0-90.4-40.5-90.4-90.5c0-7.6,6.1-13.7,13.7-13.7C1078.4,351.8,1084.6,358,1084.6,365.5z"/>
			<path class="st2" d="M1445.9,226.5c-23.2,0-42,18.8-42,42c0,7.6-6.1,13.7-13.7,13.7c-7.6,0-13.7-6.1-13.7-13.7
				c0-38.3,31-69.3,69.3-69.3c7.6,0,13.7,6.1,13.7,13.7C1459.6,220.4,1453.4,226.5,1445.9,226.5z"/>
			<path class="st0" d="M1746.5,330.7c0,7.6-6.1,13.7-13.7,13.7s-13.7-6.1-13.7-13.7s6.1-13.7,13.7-13.7S1746.5,323.1,1746.5,330.7z
				"/>
			<path class="st0" d="M1684.7,254.7c0,7.6-6.1,13.7-13.7,13.7s-13.7-6.1-13.7-13.7c0-7.6,6.1-13.7,13.7-13.7
				S1684.7,247.2,1684.7,254.7z"/>
			<path class="st0" d="M1684.3,142.4c0,7.6-6.1,13.7-13.7,13.7s-13.7-6.1-13.7-13.7c0-7.6,6.1-13.7,13.7-13.7
				S1684.3,134.8,1684.3,142.4z"/>
			<path class="st0" d="M1684.3,105.5c0,7.6-6.1,13.7-13.7,13.7s-13.7-6.1-13.7-13.7c0-7.6,6.1-13.7,13.7-13.7
				S1684.3,98,1684.3,105.5z"/>
			<path class="st0" d="M1774.7,178.8c0,7.6-6.1,13.7-13.7,13.7s-13.7-6.1-13.7-13.7c0-7.6,6.1-13.7,13.7-13.7
				S1774.7,171.2,1774.7,178.8z"/>
			<path class="st1" d="M1204.3,443.1c0-7.6-6.1-13.7-13.7-13.7s-13.7,6.1-13.7,13.7c0,7.6,6.1,13.7,13.7,13.7
				S1204.3,450.7,1204.3,443.1z"/>
			<path class="st0" d="M1245.4,443.1c0-7.6-6.1-13.7-13.7-13.7s-13.7,6.1-13.7,13.7c0,7.6,6.1,13.7,13.7,13.7
				S1245.4,450.7,1245.4,443.1z"/>
			<path class="st1" d="M1369.1,442.3c0-7.6-6.1-13.7-13.7-13.7s-13.7,6.1-13.7,13.7c0,7.6,6.1,13.7,13.7,13.7
				S1369.1,449.9,1369.1,442.3z"/>
			<path class="st1" d="M1721.1,254.7c0,7.6-6.1,13.7-13.7,13.7s-13.7-6.1-13.7-13.7c0-7.6,6.1-13.7,13.7-13.7
				S1721.1,247.2,1721.1,254.7z"/>
			<path class="st1" d="M1757.5,254.7c0,7.6-6.1,13.7-13.7,13.7s-13.7-6.1-13.7-13.7c0-7.6,6.1-13.7,13.7-13.7
				S1757.5,247.2,1757.5,254.7z"/>
			<path class="st0" d="M1533.6,167c0,7.6-6.1,13.7-13.7,13.7c-7.6,0-13.7-6.1-13.7-13.7c0-7.6,6.1-13.7,13.7-13.7
				C1527.4,153.3,1533.6,159.5,1533.6,167z"/>
			<path class="st0" d="M1534.3,331.5c0,7.6-6.1,13.7-13.7,13.7c-7.6,0-13.7-6.1-13.7-13.7c0-7.6,6.1-13.7,13.7-13.7
				C1528.2,317.8,1534.3,323.9,1534.3,331.5z"/>
			<path class="st1" d="M1056.4,85.6c0-7.6,6.1-13.7,13.7-13.7h43.8c7.6,0,13.7,6.1,13.7,13.7s-6.1,13.7-13.7,13.7h-43.8
				C1062.5,99.3,1056.4,93.1,1056.4,85.6z"/>
			<path class="st3" d="M1492.5,454c-7.6,0-13.7-6.1-13.7-13.7v-39.2c0-7.6,6.1-13.7,13.7-13.7c7.6,0,13.7,6.1,13.7,13.7v39.2
				C1506.2,447.9,1500,454,1492.5,454z"/>
			<path class="st2" d="M1558.2,443.1c0-7.6,6.1-13.7,13.7-13.7h108.8c7.6,0,13.7,6.1,13.7,13.7c0,7.6-6.1,13.7-13.7,13.7h-108.8
				C1564.4,456.8,1558.2,450.7,1558.2,443.1z"/>
			<path class="st0" d="M1684.3,456.8c-7.6,0-13.7-6.1-13.7-13.7c0-7.6,6.1-13.7,13.7-13.7s13.7,6.1,13.7,13.7
				C1698,450.7,1691.8,456.8,1684.3,456.8z"/>
			<path class="st3" d="M1850.6,187c48.4,0,87.7-39.3,87.7-87.7c0-7.6,6.1-13.7,13.7-13.7s13.7,6.1,13.7,13.7
				c0,63.6-51.5,115.1-115.1,115.1c-7.6,0-13.7-6.1-13.7-13.7C1836.9,193.1,1843.1,187,1850.6,187z"/>
			<path class="st1" d="M1961.7,109c-5.4,5.4-14,5.4-19.4,0c-5.4-5.4-5.4-14,0-19.4c5.3-5.4,14-5.4,19.4,0
				C1967.1,94.9,1967.1,103.6,1961.7,109z"/>
			<path class="st1" d="M2000.5,109c-5.4,5.4-14,5.4-19.4,0c-5.4-5.4-5.4-14,0-19.4c5.3-5.4,14-5.4,19.4,0
				C2005.8,94.9,2005.8,103.6,2000.5,109z"/>
			<path class="st2" d="M2092.1,160.4c-65.7,0-118.9,53.3-118.9,119c0,7.6-6.1,13.7-13.7,13.7s-13.7-6.1-13.7-13.7
				c0-80.9,65.5-146.4,146.4-146.4c7.6,0,13.7,6.1,13.7,13.7S2099.7,160.4,2092.1,160.4z"/>
			<path class="st4" d="M2085.1,113h-54.4c-7.6,0-13.7-6.1-13.7-13.7c0-7.6,6.1-13.7,13.7-13.7h54.4c7.6,0,13.7,6.1,13.7,13.7
				C2098.8,106.8,2092.7,113,2085.1,113z"/>
			<path class="st0" d="M2105.9,146.7c0,7.6-6.1,13.7-13.7,13.7s-13.7-6.1-13.7-13.7c0-7.6,6.1-13.7,13.7-13.7
				S2105.9,139.1,2105.9,146.7z"/>
		</g>
	</g>
</g>
<g id="Patterns_00000070119932652191470800000003305645441661208215_">
	<g id="Aare_00000093865002919667701030000006100312718680779437_" transform="translate(0.000000, -1.000000)">
		<g id="Shape_00000020368412534214996720000001547313941689859982_" transform="translate(0.589219, 1.178782)">
			<path class="st0" d="M3189.1,117.7c0,12.6,10.2,22.9,22.9,22.9c12.6,0,22.9-10.2,22.9-22.9c0-12.6-10.2-22.9-22.9-22.9
				C3199.3,94.8,3189.1,105.1,3189.1,117.7z M3212,168c-27.8,0-50.3-22.5-50.3-50.3s22.5-50.3,50.3-50.3c27.8,0,50.3,22.5,50.3,50.3
				S3239.7,168,3212,168z"/>
			<path class="st1" d="M3212.9,104.2c7.6,0,13.7,6.1,13.7,13.7c0,7.6-6.1,13.7-13.7,13.7s-13.7-6.1-13.7-13.7
				C3199.2,110.3,3205.4,104.2,3212.9,104.2z"/>
			<path class="st1" d="M3795.9,359.7c-8.9,8.9-8.9,23.3,0,32.3s23.4,8.9,32.3,0s8.9-23.3,0-32.3c-5.4-5.3-5.4-14,0-19.4
				c5.4-5.3,14-5.3,19.4,0c19.6,19.6,19.6,51.4,0,71c-19.6,19.6-51.5,19.6-71.1,0c-19.6-19.6-19.6-51.4,0-71c5.4-5.3,14-5.3,19.4,0
				C3801.2,345.7,3801.2,354.4,3795.9,359.7z"/>
			<path class="st0" d="M3847,359.4c-5.4,5.4-14,5.4-19.4,0c-5.4-5.4-5.4-14,0-19.4c5.4-5.4,14-5.4,19.4,0
				C3852.3,345.4,3852.3,354,3847,359.4z"/>
			<path class="st2" d="M4161.8,77.2c-12.6,0.2-22.8,10.5-22.6,23.2s10.5,22.7,23.2,22.6c7.6-0.1,13.8,6,13.9,13.5
				c0.1,7.6-6,13.8-13.6,13.9c-27.8,0.4-50.7-21.9-51-49.7c-0.4-27.8,21.9-50.6,49.7-51c7.6-0.1,13.8,6,13.9,13.5
				C4175.5,70.9,4169.4,77.1,4161.8,77.2z"/>
			<path class="st2" d="M3636.9,400.5c50.5,0,91.5-41,91.5-91.5c0-7.6,6.1-13.7,13.7-13.7s13.7,6.1,13.7,13.7
				c0,65.7-53.3,119-119,119c-7.6,0-13.7-6.1-13.7-13.7S3629.3,400.5,3636.9,400.5z"/>
			<path class="st3" d="M3506.2,316c0,46.5,37.7,84.1,84.1,84.1c7.6,0,13.7,6.1,13.7,13.7c0,7.6-6.1,13.7-13.7,13.7
				c-61.6,0-111.6-50-111.6-111.6c0-7.6,6.1-13.7,13.7-13.7S3506.2,308.5,3506.2,316z"/>
			<path class="st2" d="M3934,55.6c0,36.3,29.4,65.8,65.8,65.8c7.6,0,13.7,6.1,13.7,13.7c0,7.6-6.1,13.7-13.7,13.7
				c-51.5,0-93.2-41.7-93.2-93.2c0-7.6,6.1-13.7,13.7-13.7S3934,48.1,3934,55.6z"/>
			<path class="st0" d="M4175.5,63.3c0.1,7.6-6,13.8-13.5,13.9c-7.6,0.1-13.8-6-13.9-13.5c-0.1-7.6,6-13.8,13.5-13.9
				C4169.2,49.6,4175.4,55.7,4175.5,63.3z"/>
			<path class="st3" d="M3792.3,269.4c0-7.6-6.1-13.7-13.7-13.7c-12.6,0-22.9-10.2-22.9-22.8v-91.4c0-12.6,10.2-22.8,22.9-22.8
				c7.6,0,13.7-6.1,13.7-13.7c0-7.6-6.1-13.7-13.7-13.7c-14.4,0-27.4,6.1-36.6,15.8c-9.2-9.7-22.2-15.8-36.6-15.8h-42.1
				c-27.8,0-50.3,22.5-50.3,50.3c0,7.6,6.1,13.7,13.7,13.7s13.7-6.1,13.7-13.7c0-12.6,10.2-22.8,22.9-22.8h42.1
				c12.6,0,22.9,10.2,22.9,22.8v91.4c0,27.8,22.5,50.3,50.3,50.3C3786.1,283.1,3792.3,277,3792.3,269.4z"/>
			<path class="st4" d="M3764.9,104.9c0,7.6,6.1,13.7,13.7,13.7c12.6,0,22.9,10.2,22.9,22.9v91.4c0,12.6-10.2,22.9-22.9,22.9
				c-7.6,0-13.7,6.1-13.7,13.7c0,7.6,6.1,13.7,13.7,13.7c27.8,0,50.3-22.5,50.3-50.3v-91.4c0-1.1,0-2.2-0.1-3.3
				c22.8-7,39.4-28.2,39.4-53.3v-53c0-7.6-6.1-13.7-13.7-13.7c-7.6,0-13.7,6.1-13.7,13.7v53c0,13.2-9,24.3-21.3,27.4
				c-9.1-12.7-24.1-21-40.9-21C3771,91.2,3764.9,97.3,3764.9,104.9z"/>
			<path class="st1" d="M3778.8,91.2c12.6,0,22.9-10.2,22.9-22.9s-10.2-22.9-22.9-22.9c-12.6,0-22.9,10.2-22.9,22.9
				c0,7.6-6.1,13.7-13.7,13.7c-7.6,0-13.7-6.1-13.7-13.7c0-27.8,22.5-50.3,50.3-50.3c27.8,0,50.3,22.5,50.3,50.3
				s-22.5,50.3-50.3,50.3c-7.6,0-13.7-6.1-13.7-13.7C3765.1,97.4,3771.2,91.2,3778.8,91.2z"/>
			<path class="st0" d="M3778.6,91.3c7.6,0,13.7,6.1,13.7,13.7c0,7.6-6.1,13.7-13.7,13.7c-7.6,0-13.7-6.1-13.7-13.7
				C3764.9,97.4,3771,91.3,3778.6,91.3z"/>
			<path class="st0" d="M3778.6,255.7c7.6,0,13.7,6.1,13.7,13.7s-6.1,13.7-13.7,13.7c-7.6,0-13.7-6.1-13.7-13.7
				S3771,255.7,3778.6,255.7z"/>
			<path class="st0" d="M3854.5,18c7.6,0,13.7,6.1,13.7,13.7c0,7.6-6.1,13.7-13.7,13.7s-13.7-6.1-13.7-13.7
				C3840.8,24.2,3847,18,3854.5,18z"/>
			<path class="st3" d="M3278.4,116.9c0-27.8,22.5-50.3,50.3-50.3h91.5c27.8,0,50.3,22.5,50.3,50.3s-22.5,50.3-50.3,50.3h-29.3V196
				c0,27.8-22.5,50.3-50.3,50.3h-91.5c-12.6,0-22.9,10.2-22.9,22.9v42.1c0,12.6,10.2,22.9,22.9,22.9c7.6,0,13.7,6.1,13.7,13.7
				c0,7.6-6.1,13.7-13.7,13.7c-27.8,0-50.3-22.5-50.3-50.3v-42.1c0-14.4,6.1-27.4,15.8-36.6c-9.7-9.2-15.8-22.2-15.8-36.6v-41.1
				c0-7.6,6.1-13.7,13.7-13.7c7.6,0,13.7,6.1,13.7,13.7V196c0,12.6,10.2,22.9,22.9,22.9h91.5c12.6,0,22.9-10.2,22.9-22.9v-28.8
				h-34.8C3300.9,167.2,3278.4,144.6,3278.4,116.9z M3420.2,139.7c12.6,0,22.9-10.2,22.9-22.9S3432.8,94,3420.2,94h-91.5
				c-12.6,0-22.9,10.2-22.9,22.9s10.2,22.9,22.9,22.9H3420.2z"/>
			<path class="st2" d="M3483.8,248.6c-15.6-6.3-33.3,1.1-39.5,16.5c-6.3,15.4,1.2,33,16.8,39.4c8.6,3.5,17.9,2.8,25.5-1.1
				c6.7-3.5,15-0.8,18.5,5.9c3.5,6.7,0.8,15-5.9,18.5c-14.5,7.5-32.1,8.8-48.5,2.2c-29.5-12-43.9-45.6-31.8-75.1
				c12-29.5,45.8-43.5,75.3-31.5c7,2.9,10.4,10.8,7.5,17.9C3498.8,248.1,3490.8,251.4,3483.8,248.6z"/>
			<path class="st2" d="M3278.7,114c0-34.8-28.2-63-63-63c-7.6,0-13.7-6.1-13.7-13.7c0-7.6,6.1-13.7,13.7-13.7
				c49.9,0,90.4,40.5,90.4,90.5c0,7.6-6.1,13.7-13.7,13.7S3278.7,121.5,3278.7,114z"/>
			<path class="st0" d="M3292.4,101c7.6,0,13.7,6.1,13.7,13.7c0,7.6-6.1,13.7-13.7,13.7s-13.7-6.1-13.7-13.7
				C3278.7,107.2,3284.8,101,3292.4,101z"/>
			<path class="st2" d="M3792.3,169.1c0,12.6,10.2,22.8,22.9,22.8c12.6,0,22.9-10.2,22.9-22.8c0-7.6,6.1-13.7,13.7-13.7
				c7.6,0,13.7,6.1,13.7,13.7c0,27.7-22.5,50.1-50.3,50.1c-27.8,0-50.3-22.5-50.3-50.1c0-7.6,6.1-13.7,13.7-13.7
				C3786.2,155.5,3792.3,161.6,3792.3,169.1z"/>
			<path class="st1" d="M3567.2,140.6c0,12.6,10.2,22.8,22.9,22.8s22.9-10.2,22.9-22.8c0-7.6,6.1-13.7,13.7-13.7
				c7.6,0,13.7,6.1,13.7,13.7c0,27.7-22.5,50.1-50.3,50.1c-27.8,0-50.3-22.5-50.3-50.1c0-7.6,6.1-13.7,13.7-13.7
				S3567.2,133,3567.2,140.6z"/>
			<path class="st0" d="M3778.6,155.5c7.6,0,13.7,6.1,13.7,13.7c0,7.6-6.1,13.7-13.7,13.7c-7.6,0-13.7-6.1-13.7-13.7
				C3764.9,161.6,3771,155.5,3778.6,155.5z"/>
			<path class="st0" d="M3682.7,242c7.6,0,13.7,6.1,13.7,13.7c0,7.6-6.1,13.7-13.7,13.7s-13.7-6.1-13.7-13.7
				C3669,248.1,3675.1,242,3682.7,242z"/>
			<path class="st4" d="M3344.5,401.3c49,0,88.8-39.8,88.8-88.8c0-7.6,6.1-13.7,13.7-13.7c7.6,0,13.7,6.1,13.7,13.7
				c0,64.2-52,116.3-116.2,116.3c-7.6,0-13.7-6.1-13.7-13.7C3330.8,407.5,3336.9,401.3,3344.5,401.3z"/>
			<path class="st0" d="M3613,140.2c0-7.6,6.1-13.7,13.7-13.7s13.7,6.1,13.7,13.7c0,7.6-6.1,13.7-13.7,13.7S3613,147.8,3613,140.2z"
				/>
			<path class="st2" d="M3926.8,352.9c12.6,0,22.9,10.2,22.9,22.9c0,12.6-10.2,22.9-22.9,22.9s-22.9-10.2-22.9-22.9
				C3903.9,363.1,3914.1,352.9,3926.8,352.9z M3977.1,375.7c0-27.8-22.5-50.3-50.3-50.3c-27.8,0-50.3,22.5-50.3,50.3
				c0,27.8,22.5,50.3,50.3,50.3C3954.5,426,3977.1,403.5,3977.1,375.7z"/>
			<path class="st3" d="M4201,314.4c-7.6,0-13.7-6.1-13.7-13.7c0-12.6-10.2-22.9-22.8-22.9h-91.3c-12.6,0-22.8,10.2-22.8,22.9
				c0,7.6-6.1,13.7-13.7,13.7s-13.7-6.1-13.7-13.7c0-27.8,22.5-50.3,50.2-50.3h89.5c0,0,0,0,0,0c12.6,0,22.8-10.2,22.8-22.9v-91.5
				c0-12.6-10.2-22.9-22.8-22.9c-7.6,0-13.7-6.1-13.7-13.7c0-7.6,6.1-13.7,13.7-13.7c27.7,0,50.2,22.5,50.2,50.3v91.5
				c0,14-5.7,26.6-14.9,35.7c10.2,9.2,16.7,22.6,16.7,37.5C4214.7,308.3,4208.5,314.4,4201,314.4z"/>
			<path class="st4" d="M4069.5,350.7c-7.2,22.3-28.3,38.5-53.1,38.5h-53c-7.6,0-13.7-6.1-13.7-13.7c0-7.6,6.1-13.7,13.7-13.7h53
				c13,0,23.9-8.7,27.3-20.5c-12.6-9.1-20.8-23.9-20.8-40.7c0-7.6,6.1-13.7,13.7-13.7s13.7,6.1,13.7,13.7
				c0,12.6,10.2,22.8,22.8,22.8h91.3c12.6,0,22.8-10.2,22.8-22.8c0-7.6,6.1-13.7,13.7-13.7s13.7,6.1,13.7,13.7
				c0,27.7-22.5,50.1-50.2,50.1h-91.3C4071.9,350.9,4070.7,350.8,4069.5,350.7L4069.5,350.7z"/>
			<path class="st1" d="M4022.8,300.5c0,12.6-10.2,22.9-22.9,22.9s-22.9-10.2-22.9-22.9s10.2-22.9,22.9-22.9
				c7.6,0,13.7-6.1,13.7-13.7c0-7.6-6.1-13.7-13.7-13.7c-27.8,0-50.3,22.5-50.3,50.3c0,27.8,22.5,50.3,50.3,50.3
				c27.8,0,50.3-22.5,50.3-50.3c0-7.6-6.1-13.7-13.7-13.7S4022.8,293,4022.8,300.5z"/>
			<path class="st0" d="M4022.9,300.4c0,7.6,6.1,13.7,13.7,13.7s13.7-6.1,13.7-13.7c0-7.6-6.1-13.7-13.7-13.7
				S4022.9,292.8,4022.9,300.4z"/>
			<path class="st1" d="M4187.3,300.7c0,7.6,6.1,13.7,13.7,13.7c7.6,0,13.7-6.1,13.7-13.7c0-7.6-6.1-13.7-13.7-13.7
				C4193.4,287,4187.3,293.2,4187.3,300.7z"/>
			<path class="st1" d="M4036.6,217.3c0,7.6,6.1,13.7,13.7,13.7c7.6,0,13.7-6.1,13.7-13.7s-6.1-13.7-13.7-13.7
				C4042.7,203.6,4036.6,209.8,4036.6,217.3z"/>
			<path class="st1" d="M4036.6,180.9c0,7.6,6.1,13.7,13.7,13.7c7.6,0,13.7-6.1,13.7-13.7c0-7.6-6.1-13.7-13.7-13.7
				C4042.7,167.2,4036.6,173.4,4036.6,180.9z"/>
			<path class="st1" d="M3917.6,165.3c0,7.6,6.1,13.7,13.7,13.7s13.7-6.1,13.7-13.7c0-7.6-6.1-13.7-13.7-13.7
				S3917.6,157.7,3917.6,165.3z"/>
			<path class="st1" d="M3880,167.2c0,7.6,6.1,13.7,13.7,13.7s13.7-6.1,13.7-13.7c0-7.6-6.1-13.7-13.7-13.7S3880,159.6,3880,167.2z"
				/>
			<path class="st1" d="M3880,128.8c0,7.6,6.1,13.7,13.7,13.7s13.7-6.1,13.7-13.7c0-7.6-6.1-13.7-13.7-13.7S3880,121.3,3880,128.8z"
				/>
			<path class="st0" d="M3949.7,375.5c0,7.6,6.1,13.7,13.7,13.7c7.6,0,13.7-6.1,13.7-13.7c0-7.6-6.1-13.7-13.7-13.7
				C3955.8,361.8,3949.7,368,3949.7,375.5z"/>
			<path class="st0" d="M3912.9,375.5c0,7.6,6.1,13.7,13.7,13.7c7.6,0,13.7-6.1,13.7-13.7s-6.1-13.7-13.7-13.7
				C3919,361.8,3912.9,368,3912.9,375.5z"/>
			<path class="st2" d="M4082.3,314.5c12.6,0,22.8,10.2,22.8,22.9c0,12.6-10.2,22.9-22.8,22.9c-7.6,0-13.7,6.1-13.7,13.7
				c0,7.6,6.1,13.7,13.7,13.7c27.7,0,50.1-22.5,50.1-50.3c0-27.8-22.4-50.3-50.1-50.3c-7.6,0-13.7,6.1-13.7,13.7
				S4074.8,314.5,4082.3,314.5z"/>
			<path class="st0" d="M4150.5,176.2c-34.8,0-63-28.2-63-63c0-7.6-6.1-13.7-13.7-13.7s-13.7,6.1-13.7,13.7
				c0,50,40.5,90.5,90.4,90.5c7.6,0,13.7-6.1,13.7-13.7C4164.2,182.4,4158,176.2,4150.5,176.2z"/>
			<path class="st0" d="M4148.1,99.5c0,7.6,6.1,13.7,13.7,13.7s13.7-6.1,13.7-13.7c0-7.6-6.1-13.7-13.7-13.7
				S4148.1,91.9,4148.1,99.5z"/>
			<path class="st2" d="M3584,304.3c15.5,0,28.2-12.6,28.2-28.4c0-15.8-12.7-28.4-28.2-28.4c-56.3,0-101.7-45.8-101.7-102.2
				c0-7.6,6.1-13.7,13.7-13.7c7.6,0,13.7,6.1,13.7,13.7c0,41.4,33.3,74.7,74.3,74.7c30.8,0,55.6,25.1,55.6,55.8
				c0,30.7-24.8,55.8-55.6,55.8c-7.6,0-13.7-6.1-13.7-13.7S3576.4,304.3,3584,304.3z"/>
			<path class="st0" d="M3510,145.3c0-41.6,33.3-75.1,74-75.1c7.6,0,13.7-6.1,13.7-13.7c0-7.6-6.1-13.7-13.7-13.7
				c-56.1,0-101.4,46.1-101.4,102.6c0,7.6,6.1,13.7,13.7,13.7C3503.9,159,3510,152.8,3510,145.3z"/>
			<path class="st1" d="M3496.3,131.6c7.6,0,13.7,6.1,13.7,13.7c0,7.6-6.1,13.7-13.7,13.7c-7.6,0-13.7-6.1-13.7-13.7
				C3482.6,137.7,3488.8,131.6,3496.3,131.6z"/>
			<path class="st3" d="M3682.7,228.3c-7.6,0-13.7-6.1-13.7-13.7v-59.5c0-7.6,6.1-13.7,13.7-13.7s13.7,6.1,13.7,13.7v59.5
				C3696.4,222.2,3690.2,228.3,3682.7,228.3z"/>
			<path class="st3" d="M3907.4,305.4c0-51,41.3-92.4,92.3-92.4c7.6,0,13.7-6.1,13.7-13.7s-6.1-13.7-13.7-13.7
				c-66.1,0-119.8,53.6-119.8,119.8c0,7.6,6.1,13.7,13.7,13.7C3901.3,319.1,3907.4,313,3907.4,305.4z"/>
			<path class="st4" d="M3456,276.1c0-7.6,6.1-13.7,13.7-13.7H3586c7.6,0,13.7,6.1,13.7,13.7c0,7.6-6.1,13.7-13.7,13.7h-116.2
				C3462.2,289.8,3456,283.6,3456,276.1z"/>
			<path class="st0" d="M3880,305.4c0,7.6,6.1,13.7,13.7,13.7s13.7-6.1,13.7-13.7c0-7.6-6.1-13.7-13.7-13.7S3880,297.9,3880,305.4z"
				/>
			<path class="st1" d="M3483.5,305.5c5.4-5.4,14-5.4,19.4,0c5.4,5.4,5.4,14,0,19.4c-5.3,5.4-14,5.4-19.4,0
				C3478.2,319.6,3478.2,310.9,3483.5,305.5z"/>
			<path class="st1" d="M3576.7,346.7c5.4-5.4,14-5.4,19.4,0c5.4,5.4,5.4,14,0,19.4c-5.3,5.4-14,5.4-19.4,0
				C3571.3,360.7,3571.3,352,3576.7,346.7z"/>
			<path class="st0" d="M4214.7,413.9c0,7.6-6.1,13.7-13.7,13.7h-63c-7.6,0-13.7-6.1-13.7-13.7c0-7.6,6.1-13.7,13.7-13.7h63
				C4208.5,400.2,4214.7,406.3,4214.7,413.9z"/>
			<path class="st0" d="M3626.7,340.7c23.2,0,42-18.8,42-42c0-7.6,6.1-13.7,13.7-13.7c7.6,0,13.7,6.1,13.7,13.7
				c0,38.3-31,69.3-69.3,69.3c-7.6,0-13.7-6.1-13.7-13.7C3613,346.9,3619.1,340.7,3626.7,340.7z"/>
			<path class="st1" d="M3692,308.5c-5.3,5.4-14,5.4-19.4,0c-5.4-5.4-5.4-14,0-19.4c5.4-5.4,14-5.4,19.4,0
				C3697.3,294.4,3697.3,303.1,3692,308.5z"/>
			<path class="st0" d="M3456,276.1c0-7.6,6.1-13.7,13.6-13.8c7.6,0,13.7,6.1,13.8,13.6c0,7.6-6.1,13.7-13.6,13.8
				C3462.2,289.8,3456.1,283.7,3456,276.1z"/>
			<path class="st0" d="M3330.8,415.2c0-7.6,6.1-13.7,13.6-13.8c7.6,0,13.7,6.1,13.8,13.6c0,7.6-6.1,13.7-13.6,13.8
				C3337,428.8,3330.8,422.7,3330.8,415.2z"/>
			<path class="st0" d="M3456,414c0-7.6,6.1-13.7,13.6-13.8c7.6,0,13.7,6.1,13.8,13.6c0,7.6-6.1,13.7-13.6,13.8
				C3462.2,427.7,3456.1,421.5,3456,414z"/>
			<path class="st0" d="M3456,377.6c0-7.6,6.1-13.7,13.6-13.8c7.6,0,13.7,6.1,13.8,13.6c0,7.6-6.1,13.7-13.6,13.8
				C3462.2,391.2,3456.1,385.1,3456,377.6z"/>
			<path class="st1" d="M3321.8,312.7c0,12.6,10.2,22.9,22.9,22.9c12.6,0,22.9-10.2,22.9-22.9s-10.2-22.9-22.9-22.9
				c-7.6,0-13.7-6.1-13.7-13.7c0-7.6,6.1-13.7,13.7-13.7c27.8,0,50.3,22.5,50.3,50.3c0,27.8-22.5,50.3-50.3,50.3
				c-27.8,0-50.3-22.5-50.3-50.3c0-7.6,6.1-13.7,13.7-13.7C3315.7,299,3321.8,305.1,3321.8,312.7z"/>
			<path class="st4" d="M3251.3,407.2c12.6,0,22.8-10.2,22.8-22.9c0-12.6-10.2-22.9-22.8-22.9c-7.5,0-13.7-6.1-13.7-13.7
				c0-7.6,6.1-13.7,13.7-13.7c27.7,0,50.1,22.5,50.1,50.3c0,27.8-22.4,50.3-50.1,50.3c-7.5,0-13.7-6.1-13.7-13.7
				S3243.7,407.2,3251.3,407.2z"/>
			<path class="st0" d="M3330,276.1c0-7.6,6.1-13.7,13.7-13.7s13.7,6.1,13.7,13.7c0,7.6-6.1,13.7-13.7,13.7S3330,283.6,3330,276.1z"
				/>
			<path class="st1" d="M3236.8,347.7c0-7.6,6.1-13.7,13.7-13.7c7.6,0,13.7,6.1,13.7,13.7c0,7.6-6.1,13.7-13.7,13.7
				C3242.9,361.4,3236.8,355.3,3236.8,347.7z"/>
			<path class="st1" d="M3293.2,276.1c0-7.6,6.1-13.7,13.7-13.7c7.6,0,13.7,6.1,13.7,13.7c0,7.6-6.1,13.7-13.7,13.7
				C3299.3,289.8,3293.2,283.6,3293.2,276.1z"/>
			<path class="st1" d="M3256.8,276.1c0-7.6,6.1-13.7,13.7-13.7s13.7,6.1,13.7,13.7c0,7.6-6.1,13.7-13.7,13.7
				S3256.8,283.6,3256.8,276.1z"/>
			<path class="st0" d="M3235.6,384.9c0-7.6,6.1-13.7,13.7-13.7s13.7,6.1,13.7,13.7c0,7.6-6.1,13.7-13.7,13.7
				S3235.6,392.5,3235.6,384.9z"/>
			<path class="st0" d="M3199.2,384.9c0-7.6,6.1-13.7,13.7-13.7s13.7,6.1,13.7,13.7c0,7.6-6.1,13.7-13.7,13.7
				S3199.2,392.5,3199.2,384.9z"/>
			<path class="st0" d="M3162.4,384.9c0-7.6,6.1-13.7,13.7-13.7s13.7,6.1,13.7,13.7c0,7.6-6.1,13.7-13.7,13.7
				S3162.4,392.5,3162.4,384.9z"/>
			<path class="st1" d="M3212.5,140.6c7.6,0,13.7,6.1,13.7,13.7c0,7.6-6.1,13.7-13.7,13.7c-7.6,0-13.7-6.1-13.7-13.7
				C3198.8,146.7,3205,140.6,3212.5,140.6z"/>
			<path class="st2" d="M2996,27.2c0,7.6-6.1,13.7-13.7,13.7h-82.2c-7.6,0-13.7-6.1-13.7-13.7c0-7.6,6.1-13.7,13.7-13.7h82.2
				C2989.9,13.5,2996,19.7,2996,27.2z"/>
			<path class="st3" d="M2859,369.3c0-27.8,22.5-50.3,50.2-50.3h91.3c27.7,0,50.2,22.5,50.2,50.3s-22.5,50.3-50.2,50.3h-91.3
				C2881.5,419.6,2859,397.1,2859,369.3z M2909.3,346.4c-12.6,0-22.8,10.2-22.8,22.9s10.2,22.9,22.8,22.9h91.3
				c12.6,0,22.8-10.2,22.8-22.9s-10.2-22.9-22.8-22.9H2909.3z"/>
			<path class="st3" d="M3102.5,86c0-7.6-6.1-13.7-13.7-13.7h-42.5c-14.4,0-27.4,6.1-36.5,15.8c-9.2-9.7-22.1-15.8-36.5-15.8h-42
				c-27.8,0-50.3,22.5-50.3,50.3c0,7.6,6.1,13.7,13.7,13.7s13.7-6.1,13.7-13.7c0-12.6,10.2-22.8,22.8-22.8h42
				c12.6,0,22.8,10.2,22.8,22.8v92.3c0,27.2,22.1,49.3,49.3,49.3v-27.4c-12.1,0-21.9-9.8-21.9-21.9v-92.3
				c0-12.6,10.2-22.8,22.8-22.8h42.5C3096.4,99.7,3102.5,93.5,3102.5,86z"/>
			<path class="st4" d="M2924.6,196.4c-12.6,0-22.9,10.2-22.9,22.9s10.2,22.9,22.9,22.9s22.9-10.2,22.9-22.9
				c0-7.6,6.1-13.7,13.7-13.7s13.7,6.1,13.7,13.7c0,27.8-22.5,50.3-50.3,50.3c-27.8,0-50.3-22.5-50.3-50.3
				c0-27.8,22.5-50.3,50.3-50.3c7.6,0,13.7,6.1,13.7,13.7C2938.3,190.3,2932.2,196.4,2924.6,196.4z"/>
			<path class="st4" d="M2956.9,382.8c-16.9,0-30.4,13.6-30.4,30.2c0,16.6,13.6,30.2,30.4,30.2c9.3,0,17.6-4.1,23.2-10.7
				c4.9-5.8,13.6-6.4,19.4-1.5c5.8,4.9,6.5,13.6,1.5,19.3c-10.6,12.4-26.5,20.3-44.1,20.3c-31.9,0-57.9-25.7-57.9-57.6
				s26-57.6,57.9-57.6c7.6,0,13.7,6.1,13.7,13.7C2970.6,376.6,2964.4,382.8,2956.9,382.8z"/>
			<path class="st0" d="M3045.4,236.7c7.6,0,13.7,6.1,13.7,13.7c0,7.6-6.1,13.7-13.7,13.7s-13.7-6.1-13.7-13.7
				C3031.7,242.9,3037.8,236.7,3045.4,236.7z"/>
			<path class="st2" d="M3084.6,192.7c0,12.6,10.2,22.9,22.9,22.9s22.9-10.2,22.9-22.9c0-12.6-10.2-22.9-22.9-22.9
				S3084.6,180,3084.6,192.7z M3107.4,243c-27.8,0-50.3-22.5-50.3-50.3c0-27.8,22.5-50.3,50.3-50.3s50.3,22.5,50.3,50.3
				C3157.7,220.5,3135.2,243,3107.4,243z"/>
			<path class="st4" d="M3065.3,310.7c15.6,0,28.2-12.7,28.2-28.4v-53c0-7.6,6.1-13.7,13.7-13.7c7.5,0,13.7,6.1,13.7,13.7v53
				c0,30.8-24.9,55.8-55.6,55.8V310.7z"/>
			<path class="st0" d="M3107.2,215.6c7.6,0,13.7,6.1,13.7,13.7c0,7.6-6.1,13.7-13.7,13.7s-13.7-6.1-13.7-13.7
				C3093.5,221.7,3099.7,215.6,3107.2,215.6z"/>
			<path class="st0" d="M3107.6,179.2c7.6,0,13.7,6.1,13.7,13.7c0,7.6-6.1,13.7-13.7,13.7s-13.7-6.1-13.7-13.7
				C3093.9,185.3,3100,179.2,3107.6,179.2z"/>
			<path class="st2" d="M3038.1,354.6c12.6,0,22.9-10.2,22.9-22.9s-10.2-22.9-22.9-22.9c-50,0-90.6-40.5-90.6-90.5
				c0-7.6,6.1-13.7,13.7-13.7s13.7,6.1,13.7,13.7c0,34.8,28.3,63.1,63.1,63.1c27.8,0,50.3,22.5,50.3,50.3
				c0,27.8-22.5,50.3-50.3,50.3c-7.6,0-13.7-6.1-13.7-13.7C3024.4,360.7,3030.5,354.6,3038.1,354.6z"/>
			<path class="st1" d="M2835.2,122.4c0,12.6,10.2,22.8,22.9,22.8c12.6,0,22.9-10.2,22.9-22.8c0-7.6,6.1-13.7,13.7-13.7
				c7.6,0,13.7,6.1,13.7,13.7c0,27.7-22.5,50.1-50.3,50.1c-27.8,0-50.3-22.5-50.3-50.1c0-7.6,6.1-13.7,13.7-13.7
				S2835.2,114.8,2835.2,122.4z"/>
			<path class="st4" d="M2859,366.3c0-34.8-28.2-63-63-63c-7.6,0-13.7-6.1-13.7-13.7c0-7.6,6.1-13.7,13.7-13.7
				c49.9,0,90.4,40.5,90.4,90.5c0,7.6-6.1,13.7-13.7,13.7S2859,373.9,2859,366.3z"/>
			<path class="st0" d="M2961.2,204.6c7.6,0,13.7,6.1,13.7,13.7c0,7.6-6.1,13.7-13.7,13.7s-13.7-6.1-13.7-13.7
				C2947.5,210.7,2953.6,204.6,2961.2,204.6z"/>
			<path class="st0" d="M2894.7,108.7c7.6,0,13.7,6.1,13.7,13.7s-6.1,13.7-13.7,13.7c-7.6,0-13.7-6.1-13.7-13.7
				S2887.1,108.7,2894.7,108.7z"/>
			<path class="st0" d="M3089.2,72.3c7.6,0,13.7,6.1,13.7,13.7c0,7.6-6.1,13.7-13.7,13.7s-13.7-6.1-13.7-13.7
				C3075.5,78.4,3081.6,72.3,3089.2,72.3z"/>
			<path class="st1" d="M2961.2,168.2c7.6,0,13.7,6.1,13.7,13.7c0,7.6-6.1,13.7-13.7,13.7s-13.7-6.1-13.7-13.7
				C2947.5,174.3,2953.6,168.2,2961.2,168.2z"/>
			<path class="st1" d="M2961.2,131.4c7.6,0,13.7,6.1,13.7,13.7c0,7.6-6.1,13.7-13.7,13.7s-13.7-6.1-13.7-13.7
				C2947.5,137.5,2953.6,131.4,2961.2,131.4z"/>
			<path class="st0" d="M2857.9,104c7.6,0,13.7,6.1,13.7,13.7c0,7.6-6.1,13.7-13.7,13.7s-13.7-6.1-13.7-13.7
				C2844.2,110.1,2850.3,104,2857.9,104z"/>
			<path class="st0" d="M2857.9,67.6c7.6,0,13.7,6.1,13.7,13.7c0,7.6-6.1,13.7-13.7,13.7s-13.7-6.1-13.7-13.7
				C2844.2,73.7,2850.3,67.6,2857.9,67.6z"/>
			<path class="st0" d="M2872.7,352.6c7.6,0,13.7,6.1,13.7,13.7c0,7.6-6.1,13.7-13.7,13.7s-13.7-6.1-13.7-13.7
				C2859,358.8,2865.2,352.6,2872.7,352.6z"/>
			<path class="st0" d="M3037.1,354.6c7.6,0,13.7,6.1,13.7,13.7s-6.1,13.7-13.7,13.7s-13.7-6.1-13.7-13.7S3029.6,354.6,3037.1,354.6
				z"/>
			<path class="st2" d="M2773.7,370.8c0,12.6,10.2,22.9,22.9,22.9c12.6,0,22.9-10.2,22.9-22.9c0-12.6-10.2-22.9-22.9-22.9
				C2784,348,2773.7,358.2,2773.7,370.8z M2796.6,421.2c-27.8,0-50.3-22.5-50.3-50.3c0-27.8,22.5-50.3,50.3-50.3
				c27.8,0,50.3,22.5,50.3,50.3C2846.9,398.6,2824.4,421.2,2796.6,421.2z"/>
			<path class="st4" d="M2391.6,374.8c0,12.6-10.2,22.9-22.9,22.9c-12.6,0-22.9-10.2-22.9-22.9c0-12.6,10.2-22.9,22.9-22.9
				c7.6,0,13.7-6.1,13.7-13.7c0-7.6-6.1-13.7-13.7-13.7c-27.8,0-50.3,22.5-50.3,50.3c0,27.8,22.5,50.3,50.3,50.3
				s50.3-22.5,50.3-50.3c0-7.6-6.1-13.7-13.7-13.7S2391.6,367.2,2391.6,374.8z"/>
			<path class="st1" d="M2796.8,357.3c7.6,0,13.7,6.1,13.7,13.7s-6.1,13.7-13.7,13.7s-13.7-6.1-13.7-13.7S2789.2,357.3,2796.8,357.3
				z"/>
			<path class="st4" d="M2855.1,41.7c-34.8,0-63,28.2-63,63c0,7.6-6.1,13.7-13.7,13.7c-7.6,0-13.7-6.1-13.7-13.7
				c0-50,40.5-90.5,90.4-90.5c7.6,0,13.7,6.1,13.7,13.7S2862.7,41.7,2855.1,41.7z"/>
			<path class="st3" d="M2716.1,365.6c-40.4,0-73.2,32.8-73.2,73.2c0,7.6-6.1,13.7-13.7,13.7s-13.7-6.1-13.7-13.7
				c0-55.6,45-100.6,100.6-100.6c7.6,0,13.7,6.1,13.7,13.7C2729.9,359.4,2723.7,365.6,2716.1,365.6z"/>
			<path class="st0" d="M2417.5,337.4c0-7.6-6.1-13.7-13.7-13.7s-13.7,6.1-13.7,13.7c0,7.6,6.1,13.7,13.7,13.7
				S2417.5,344.9,2417.5,337.4z"/>
			<path class="st0" d="M2453.9,337.4c0-7.6-6.1-13.7-13.7-13.7s-13.7,6.1-13.7,13.7c0,7.6,6.1,13.7,13.7,13.7
				S2453.9,344.9,2453.9,337.4z"/>
			<path class="st3" d="M2185.1,14.3c27.8,0,50.3,22.5,50.3,50.3v91.4c0,27.8-22.5,50.3-50.3,50.3c-27.8,0-50.3-22.5-50.3-50.3V64.6
				C2134.8,36.8,2157.4,14.3,2185.1,14.3z M2162.3,64.6v91.4c0,12.6,10.2,22.8,22.9,22.8c12.6,0,22.9-10.2,22.9-22.8V64.6
				c0-12.6-10.2-22.8-22.9-22.8C2172.5,41.7,2162.3,51.9,2162.3,64.6z"/>
			<path class="st4" d="M2171.2,192.5c0,27.7-22.6,50.2-50.4,50.2c-7.6,0-13.7,6.1-13.7,13.7s6.2,13.7,13.7,13.7
				c43,0,77.9-34.7,77.9-77.6c0-7.6-6.2-13.7-13.7-13.7C2177.3,178.8,2171.2,184.9,2171.2,192.5z"/>
			<path class="st0" d="M2171.2,192.5c0,7.6,6.1,13.7,13.7,13.7s13.7-6.1,13.7-13.7c0-7.6-6.1-13.7-13.7-13.7
				S2171.2,184.9,2171.2,192.5z"/>
			<path class="st2" d="M2307.7,87.5c12.6,0,22.9-10.2,22.9-22.9s-10.2-22.9-22.9-22.9s-22.9,10.2-22.9,22.9S2295,87.5,2307.7,87.5z
				 M2358,64.6c0,27.8-22.5,50.3-50.3,50.3c-27.8,0-50.3-22.5-50.3-50.3s22.5-50.3,50.3-50.3C2335.4,14.3,2358,36.8,2358,64.6z"/>
			<path class="st4" d="M2581.9,153.3c-7.6,0-13.7-6.2-13.7-13.7c0-12.6-10.2-22.9-22.8-22.9h-91.4c-12.6,0-22.8,10.3-22.8,22.9
				c0,7.6-6.1,13.7-13.7,13.7s-13.7-6.2-13.7-13.7c0-16.9,8.3-31.8,21-40.9c-3.2-11.8-14.1-20.4-27.4-20.4h-53
				c-7.6,0-13.7-6.2-13.7-13.7s6.1-13.7,13.7-13.7h53c24.8,0,46.1,15.9,53.2,38.6c1.1-0.1,2.3-0.1,3.4-0.1h91.4
				c27.8,0,50.3,22.6,50.3,50.4C2595.6,147.2,2589.4,153.3,2581.9,153.3z"/>
			<path class="st3" d="M2694.4,317c-27.8,0-50.3-22.5-50.3-50.3v-91.4c0-27.8,22.5-50.3,50.3-50.3c27.8,0,50.3,22.5,50.3,50.3v91.4
				C2744.7,294.5,2722.2,317,2694.4,317z M2671.6,266.7c0,12.6,10.2,22.8,22.9,22.8c12.6,0,22.9-10.2,22.9-22.8v-91.4
				c0-12.6-10.2-22.8-22.9-22.8c-12.6,0-22.9,10.2-22.9,22.8V266.7z"/>
			<path class="st3" d="M2581.9,125.9c-7.6,0-13.7,6.1-13.7,13.7c0,12.6-10.2,22.9-22.8,22.9l0,0H2454c-12.6,0-22.8-10.2-22.8-22.9
				c0-7.6-6.1-13.7-13.7-13.7s-13.7,6.1-13.7,13.7c0,14.4,6.1,27.4,15.8,36.6c-9.7,9.2-15.8,22.2-15.8,36.6v42.1
				c0,27.8,22.5,50.3,50.2,50.3c7.6,0,13.7-6.1,13.7-13.7c0-7.6-6.1-13.7-13.7-13.7c-12.6,0-22.8-10.2-22.8-22.9v-42.1
				c0-12.6,10.2-22.9,22.8-22.9h91.3c0,0,0,0,0,0c27.7,0,50.2-22.5,50.2-50.3C2595.6,132.1,2589.4,125.9,2581.9,125.9z"/>
			<path class="st1" d="M2403.7,139.8c0-12.6-10.2-22.9-22.9-22.9s-22.9,10.2-22.9,22.9s10.2,22.9,22.9,22.9
				c7.6,0,13.7,6.1,13.7,13.7c0,7.6-6.1,13.7-13.7,13.7c-27.8,0-50.3-22.5-50.3-50.3s22.5-50.3,50.3-50.3
				c27.8,0,50.3,22.5,50.3,50.3c0,7.6-6.1,13.7-13.7,13.7S2403.7,147.4,2403.7,139.8z"/>
			<path class="st1" d="M2520.5,252.2c0,12.6,10.2,22.9,22.9,22.9c12.6,0,22.9-10.2,22.9-22.9s-10.2-22.9-22.9-22.9
				c-7.6,0-13.7-6.1-13.7-13.7c0-7.6,6.1-13.7,13.7-13.7c27.8,0,50.3,22.5,50.3,50.3s-22.5,50.3-50.3,50.3
				c-27.8,0-50.3-22.5-50.3-50.3c0-7.6,6.1-13.7,13.7-13.7S2520.5,244.6,2520.5,252.2z"/>
			<path class="st0" d="M2707.9,178c0,16.9,13.6,30.4,30.1,30.4s30.1-13.6,30.1-30.4c0-9.3-4.1-17.6-10.7-23.2
				c-5.8-4.9-6.4-13.6-1.5-19.4c4.9-5.8,13.6-6.5,19.3-1.5c12.4,10.6,20.3,26.5,20.3,44.1c0,31.9-25.7,57.9-57.5,57.9
				c-31.8,0-57.5-26-57.5-57.9c0-7.6,6.1-13.7,13.7-13.7S2707.9,170.4,2707.9,178z"/>
			<path class="st0" d="M2403.8,140c0-7.6,6.1-13.7,13.7-13.7s13.7,6.1,13.7,13.7c0,7.6-6.1,13.7-13.7,13.7S2403.8,147.6,2403.8,140
				z"/>
			<path class="st0" d="M2568.2,139.6c0-7.6,6.1-13.7,13.7-13.7s13.7,6.1,13.7,13.7c0,7.6-6.1,13.7-13.7,13.7
				S2568.2,147.2,2568.2,139.6z"/>
			<path class="st0" d="M2330.6,64.4c0-7.6,6.1-13.7,13.7-13.7s13.7,6.1,13.7,13.7s-6.1,13.7-13.7,13.7S2330.6,72,2330.6,64.4z"/>
			<path class="st0" d="M2293.8,64.8c0-7.6,6.1-13.7,13.7-13.7c7.6,0,13.7,6.1,13.7,13.7c0,7.6-6.1,13.7-13.7,13.7
				C2299.9,78.5,2293.8,72.4,2293.8,64.8z"/>
			<path class="st2" d="M2481.2,125.9c12.6,0,22.8-10.2,22.8-22.9s-10.2-22.9-22.8-22.9c-7.6,0-13.7-6.1-13.7-13.7
				c0-7.6,6.1-13.7,13.7-13.7c27.7,0,50.1,22.5,50.1,50.3c0,27.8-22.4,50.3-50.1,50.3c-7.6,0-13.7-6.1-13.7-13.7
				C2467.6,132,2473.7,125.9,2481.2,125.9z"/>
			<path class="st2" d="M2453.1,371c17.4,0,32-14.5,32-32.9c0-18.4-14.6-32.9-32-32.9c-7.6,0-13.7-6.1-13.7-13.7
				c0-7.6,6.1-13.7,13.7-13.7c33.1,0,59.5,27.3,59.5,60.3s-26.4,60.3-59.5,60.3c-7.6,0-13.7-6.1-13.7-13.7
				C2439.4,377.2,2445.5,371,2453.1,371z"/>
			<path class="st2" d="M2543.5,201.8c34.8,0,63.1-28.3,63.1-63.2c0-27.8,22.5-50.3,50.3-50.3c27.8,0,50.3,22.5,50.3,50.3
				c0,7.6-6.1,13.7-13.7,13.7c-7.6,0-13.7-6.1-13.7-13.7c0-12.6-10.2-22.9-22.9-22.9S2634,126,2634,138.7c0,50-40.5,90.6-90.5,90.6
				c-7.6,0-13.7-6.1-13.7-13.7C2529.8,208,2536,201.8,2543.5,201.8z"/>
			<path class="st4" d="M2691.5,317c-57.5,0-104.1,46.6-104.1,104.2c0,7.6-6.1,13.7-13.7,13.7s-13.7-6.1-13.7-13.7
				c0-72.7,58.9-131.6,131.5-131.6c7.6,0,13.7,6.1,13.7,13.7C2705.2,310.9,2699.1,317,2691.5,317z"/>
			<path class="st0" d="M2311.4,149.8c0,34.8,28.2,63,63,63c7.6,0,13.7,6.1,13.7,13.7c0,7.6-6.1,13.7-13.7,13.7
				c-49.9,0-90.4-40.5-90.4-90.5c0-7.6,6.1-13.7,13.7-13.7S2311.4,142.2,2311.4,149.8z"/>
			<path class="st3" d="M3129.5,104.8c0-34.8-28.2-63-63-63c-7.6,0-13.7-6.1-13.7-13.7s6.1-13.7,13.7-13.7
				c49.9,0,90.4,40.5,90.4,90.5c0,7.6-6.1,13.7-13.7,13.7C3135.7,118.5,3129.5,112.3,3129.5,104.8z"/>
			<path class="st2" d="M2768.2,243.8c23.2,0,42-18.8,42-42c0-7.6,6.1-13.7,13.7-13.7c7.6,0,13.7,6.1,13.7,13.7
				c0,38.3-31,69.3-69.3,69.3c-7.6,0-13.7-6.1-13.7-13.7C2754.5,249.9,2760.6,243.8,2768.2,243.8z"/>
			<path class="st0" d="M2467.6,139.6c0-7.6,6.1-13.7,13.7-13.7c7.6,0,13.7,6.1,13.7,13.7c0,7.6-6.1,13.7-13.7,13.7
				C2473.7,153.3,2467.6,147.2,2467.6,139.6z"/>
			<path class="st0" d="M2529.4,215.6c0-7.6,6.1-13.7,13.7-13.7s13.7,6.1,13.7,13.7c0,7.6-6.1,13.7-13.7,13.7
				S2529.4,223.1,2529.4,215.6z"/>
			<path class="st0" d="M2529.8,328c0-7.6,6.1-13.7,13.7-13.7s13.7,6.1,13.7,13.7c0,7.6-6.1,13.7-13.7,13.7S2529.8,335.5,2529.8,328
				z"/>
			<path class="st0" d="M2529.8,364.8c0-7.6,6.1-13.7,13.7-13.7s13.7,6.1,13.7,13.7s-6.1,13.7-13.7,13.7S2529.8,372.3,2529.8,364.8z
				"/>
			<path class="st0" d="M2439.4,291.5c0-7.6,6.1-13.7,13.7-13.7c7.6,0,13.7,6.1,13.7,13.7c0,7.6-6.1,13.7-13.7,13.7
				C2445.5,305.2,2439.4,299.1,2439.4,291.5z"/>
			<path class="st1" d="M3009.7,27.2c0,7.6,6.1,13.7,13.7,13.7s13.7-6.1,13.7-13.7c0-7.6-6.1-13.7-13.7-13.7
				S3009.7,19.7,3009.7,27.2z"/>
			<path class="st0" d="M2968.6,27.2c0,7.6,6.1,13.7,13.7,13.7s13.7-6.1,13.7-13.7c0-7.6-6.1-13.7-13.7-13.7
				S2968.6,19.7,2968.6,27.2z"/>
			<path class="st1" d="M2844.9,28c0,7.6,6.1,13.7,13.7,13.7s13.7-6.1,13.7-13.7s-6.1-13.7-13.7-13.7S2844.9,20.4,2844.9,28z"/>
			<path class="st1" d="M2493,215.6c0-7.6,6.1-13.7,13.7-13.7s13.7,6.1,13.7,13.7c0,7.6-6.1,13.7-13.7,13.7S2493,223.1,2493,215.6z"
				/>
			<path class="st1" d="M2456.6,215.6c0-7.6,6.1-13.7,13.7-13.7s13.7,6.1,13.7,13.7c0,7.6-6.1,13.7-13.7,13.7
				S2456.6,223.1,2456.6,215.6z"/>
			<path class="st0" d="M2680.5,303.3c0-7.6,6.1-13.7,13.7-13.7s13.7,6.1,13.7,13.7c0,7.6-6.1,13.7-13.7,13.7
				S2680.5,310.9,2680.5,303.3z"/>
			<path class="st0" d="M2679.7,138.8c0-7.6,6.1-13.7,13.7-13.7s13.7,6.1,13.7,13.7c0,7.6-6.1,13.7-13.7,13.7
				S2679.7,146.4,2679.7,138.8z"/>
			<path class="st1" d="M3157.7,384.7c0,7.6-6.1,13.7-13.7,13.7h-43.8c-7.6,0-13.7-6.1-13.7-13.7c0-7.6,6.1-13.7,13.7-13.7h43.8
				C3151.6,371,3157.7,377.2,3157.7,384.7z"/>
			<path class="st3" d="M2721.6,16.3c7.6,0,13.7,6.1,13.7,13.7v39.2c0,7.6-6.1,13.7-13.7,13.7s-13.7-6.1-13.7-13.7V29.9
				C2707.9,22.4,2714.1,16.3,2721.6,16.3z"/>
			<path class="st2" d="M2655.9,27.2c0,7.6-6.1,13.7-13.7,13.7h-108.8c-7.6,0-13.7-6.1-13.7-13.7c0-7.6,6.1-13.7,13.7-13.7h108.8
				C2649.7,13.5,2655.9,19.7,2655.9,27.2z"/>
			<path class="st0" d="M2529.8,13.5c7.6,0,13.7,6.1,13.7,13.7c0,7.6-6.1,13.7-13.7,13.7s-13.7-6.1-13.7-13.7
				C2516.1,19.7,2522.3,13.5,2529.8,13.5z"/>
			<path class="st3" d="M2363.4,283.3c-48.4,0-87.7,39.3-87.7,87.7c0,7.6-6.1,13.7-13.7,13.7c-7.6,0-13.7-6.1-13.7-13.7
				c0-63.6,51.5-115.1,115.1-115.1c7.6,0,13.7,6.1,13.7,13.7S2371,283.3,2363.4,283.3z"/>
			<path class="st1" d="M2252.4,361.3c5.4-5.4,14-5.4,19.4,0c5.4,5.4,5.4,14,0,19.4c-5.3,5.4-14,5.4-19.4,0
				C2247,375.4,2247,366.7,2252.4,361.3z"/>
			<path class="st1" d="M2213.6,361.3c5.4-5.4,14-5.4,19.4,0c5.4,5.4,5.4,14,0,19.4c-5.3,5.4-14,5.4-19.4,0
				C2208.3,375.4,2208.3,366.7,2213.6,361.3z"/>
			<path class="st2" d="M2121.9,309.9c65.7,0,118.9-53.3,118.9-119c0-7.6,6.1-13.7,13.7-13.7s13.7,6.1,13.7,13.7
				c0,80.9-65.5,146.4-146.4,146.4c-7.6,0-13.7-6.1-13.7-13.7C2108.2,316,2114.4,309.9,2121.9,309.9z"/>
			<path class="st4" d="M2129,357.3h54.4c7.6,0,13.7,6.1,13.7,13.7s-6.1,13.7-13.7,13.7H2129c-7.6,0-13.7-6.1-13.7-13.7
				S2121.4,357.3,2129,357.3z"/>
			<path class="st0" d="M2108.2,323.7c0-7.6,6.1-13.7,13.7-13.7s13.7,6.1,13.7,13.7c0,7.6-6.1,13.7-13.7,13.7
				S2108.2,331.2,2108.2,323.7z"/>
		</g>
	</g>
</g>
</svg>
