<?xml version="1.0" encoding="utf-8"?>
<!-- Generator: Adobe Illustrator 27.2.0, SVG Export Plug-In . SVG Version: 6.00 Build 0)  -->
<svg version="1.1" id="Layer_1" xmlns="http://www.w3.org/2000/svg" xmlns:xlink="http://www.w3.org/1999/xlink" x="0px" y="0px"
	 viewBox="0 0 3224.6 627.9" style="enable-background:new 0 0 3224.6 627.9;" xml:space="preserve">
<style type="text/css">
	.st0{fill-rule:evenodd;clip-rule:evenodd;fill:#228085;}
	.st1{fill-rule:evenodd;clip-rule:evenodd;fill:#D55151;}
	.st2{fill-rule:evenodd;clip-rule:evenodd;fill:#242C2D;}
	.st3{fill-rule:evenodd;clip-rule:evenodd;fill:#F4B943;}
	.st4{fill:#242C2D;}
	.st5{fill-rule:evenodd;clip-rule:evenodd;fill:#EADDCD;}
	.st6{fill-rule:evenodd;clip-rule:evenodd;fill:#5AA7B2;}
	.st7{fill-rule:evenodd;clip-rule:evenodd;fill:#1A9E78;}
</style>
<g id="Patterns">
	<g id="Mohaka">
		<g id="Shape" transform="translate(-10.000000, -19.000000)">
			<path class="st0" d="M1627.4,631.7c-74.2,3.6-147.9,13.9-222.2,14.9c3.7-48.9,4.8-97.9,7.7-146.9c71.8-4.8,142.8-17.9,214.8-19.7
				C1628.7,530.5,1628.2,581.1,1627.4,631.7z"/>
			<path class="st1" d="M1197.1,635.1c-63.7-8-113.7-8.9-175.1-5.2c-1.7-53-7.7-106-8.9-159.2c65.9-2.5,125.8,7.9,192,17.7
				c66.2,9.8,139.3,16,207.5,11.2c-2.5,49-2.7,98.1-8.2,146.8C1337.6,648,1260.7,643.1,1197.1,635.1z"/>
			<path class="st2" d="M1022.8,630.1c-67.5,5.6-135,3-202.7,2.1c0.2-50.3-0.7-100.6-0.6-151c64.7-1.2,129.2-7,193.9-10.5
				C1014.3,524,1019.4,576.9,1022.8,630.1z"/>
			<path class="st3" d="M820.2,632.2c-66.5-0.8-132.9-4.9-199.3-0.2c-1.9-48.8-4.2-97.7-3.4-146.6c67.3-3.9,134.7-3,202.1-4.2
				C819.5,531.5,820.4,581.8,820.2,632.2z"/>
			<path class="st1" d="M620.8,632c-73.4,5.3-146.7,10.5-220.4,9.7c2.8-49.7,5-99.3,8.4-149c69.6,2.6,139.1-3.1,208.5-7.3
				C616.6,534.3,618.9,583.2,620.8,632z"/>
			<path class="st4" d="M206.5,476.7c3.6-50.7,11.8-100.9,16.4-151.5c66.5,7,132.9,16.4,199.9,17.6c-4.4,49.9-10.3,100-13.8,149.9
				s-5.6,99.3-8.4,149.1c-67.3-0.9-134.1-8.9-201.2-12.7C202.1,578.3,203,527.4,206.5,476.7z"/>
			<path class="st3" d="M199.3,629c-62.3-3.1-124,8.1-186.3,6.9c-1.3-54.4-4.2-108.8-2.4-163.3c65.3,1.2,130.7-0.5,195.9,4
				C203,527.4,202.1,578.3,199.3,629z"/>
			<path class="st3" d="M1427.4,306.5c2.8-53.6,2.7-78.1,3.3-125.1c65.8-0.7,131.3-2.2,197.1-4.7c0,45,0,61.9-0.3,113.8
				s-1.1,133.3,0.3,191.3c-71.9,4.3-143.1,17.1-214.8,19.4C1416.8,441.8,1424.6,360,1427.4,306.5z"/>
			<path class="st0" d="M1430.1,163.8c1.4,53,0,127.7-4.9,182.7c-4.9,54.9-8.7,100.8-12.3,153.6c-70.2,3.6-140.2-2.3-210-11.4
				c6.2-51.8,13.1-95.7,24.1-149.1s14.9-127.7,9.8-180.8s-11.5-89.8-20-138.9c68,13.2,137.1,10.5,205.8,8.4
				C1424.8,77.2,1428.7,110.9,1430.1,163.8z"/>
			<path class="st5" d="M796.4,332.6c67.5-0.7,163.6-23.7,235.2-23.6s127.6,25.8,195.3,34.3c-10.3,48-19.3,96.1-23.1,144.8
				c-65.8-8.8-125.3-21-194.1-17.5s-157.4,14.3-223.1,14.8s-109.5-3.1-170.6,0c2.9-48.8,8.7-97.5,12-146.1
				C689.8,336.3,728.9,333.3,796.4,332.6z"/>
			<path class="st6" d="M422.8,342.2c4.4-50.8,6.5-103,4.9-154.2c72,6.2,144.2,12.2,216.6,12.1c-1,47.4-7.5,92.5-14.3,139.8
				s-11.6,97.2-12.5,145.4c-69.4,4.5-138.9,9.8-208.5,7.6C412.5,442.3,418.3,393,422.8,342.2z"/>
			<path class="st1" d="M18.5,295.9c1-50.4-3.2-75.3-5.9-120.4c69.8,3.2,139.6,0.8,209.6,1.6c1.5,46,4.9,72.9,2.2,123.7
				c-2.6,50.9-13.9,119.8-17.9,174.8c-65.3-2.8-130.7-0.9-196-4.1C12.7,416.6,17.5,346.4,18.5,295.9z"/>
			<path class="st2" d="M1226.5,345.3c-64.4-8.7-129.8-34.1-195.5-34.5c9.8-54.7,18.5-111.8,14.7-167.3
				c65.2,7.6,128.2,26.8,192.8,38.2C1240.9,236,1236.5,292,1226.5,345.3z"/>
			<path class="st1" d="M854,171.1c62.9-16.4,126.1-34.4,191.8-27.6c2.4,55.7,1.3,110.8-12.4,165.4c-72.4,0.1-160.1,22.8-228.2,23.6
				s-113.4,3.6-177,6.8c10.1-46.2,14.4-92.3,15.7-139.3c1.3-47.1-4.7-94.8-10.1-141.6c62.2,1.5,124.4-8.9,181-35.1
				C829.8,72.6,851.3,119,854,171.1z"/>
			<path class="st0" d="M222.2,178.4c-3.1-48.4-13.9-110.7-16-159c69.9-0.9,146.8,0.7,216.6,10.1c2.1,51.4,3.3,106.9,4.9,158.4
				s-0.5,103.3-4.9,154.7c-67-1.2-133.3-10.5-199.9-17.6C227.1,276.5,225.2,226.8,222.2,178.4z"/>
			<path class="st5" d="M222.2,178.1c-69.8-2.3-139.7-0.2-209.5-1.5c-4.2-51.8,1.8-103,5.8-154.5C81.8,33,145.7,35.6,209.9,34.9
				C212,82.7,219,130.2,222.2,178.1z"/>
		</g>
	</g>
</g>
<path class="st3" d="M1824.1,147.8c1.2-47.8-5-94.2-1.9-141.2c75.9-4.1,176.1-1.2,244.4,13.4c68.4,14.6,106,26.3,169.4,32.5
	c6.7,49.5,19.7,101,14.2,151.7c-46.4,1.3-112.3-14.5-151.5-24.8c-39.1-10.3-31.5-8.1-63-15.7c-1.8,48.5-18.6,93.8-26.4,141.2
	c-64.5-13.2-130-16.2-195.6-12.2C1818.8,244.9,1822.9,195.5,1824.1,147.8z"/>
<path class="st7" d="M2009.2,306c9-49.4,19.7-95.4,24.3-144.6c71.4,15.5,142.3,39.1,215.8,42c-0.2-51.7-2.3-101.4-15.8-151.4
	c68.4,3.2,132-11.7,194.1-40.1c15.2,52.5,18.5,108.9,20.1,162.9c1.6,54-1.2,106.1-6.7,159.6c-41.9,6.6-102,12.3-139.1,13.7
	c-37.1,1.4-39.5-0.1-70.4-0.5c-5,43.4-15.5,86.6-16.4,130.6c-73.4-2.9-146.1-12.2-219.3-17C1994.6,409.9,2000.2,355.4,2009.2,306z"
	/>
<path class="st6" d="M3026.8,335.5c-12.1,79.6-12.7,65.6-12.6,131.5c-51.8-15.8-54.8-9.8-118.5-19.3c-63.7-9.6-199.2,2.3-271.6,19.3
	c-6.7-53.5,11.3-113.8,0-166.4c67.7-17.3,136.4-28.7,206.1-23c4.4-92.4-3.6-184.1-7.3-276.7c69.1,13.4,140.1-5.5,209.1,3.9
	C3043.6,99.1,3038.8,256,3026.8,335.5z"/>
<path class="st1" d="M3024.9,344.2c8.1-51.6,11.7-132.2,10.9-188.2s-0.7-102.4-3.2-156c64.2,0.4,128.1,2.4,191.4,13.1
	c-3.4,52.8-4.7,102-3.1,156.4c1.5,54.4,5.9,128.4,2.2,178.5c-3.7,50-4.4,71.7-5.9,116c-68.8-3.1-137.5,1.5-206.5-2
	C3014,416.3,3016.8,395.8,3024.9,344.2z"/>
<path class="st6" d="M1814,292.9c65.4-4.3,131-1.1,195.4,12.1c-9.3,51.6-14.4,103.9-13.6,156.3c-63.7-3.3-128-8.1-191.7-6.3
	s-126.4,5.3-189.9,7.3c1.7-46.1-0.3-71.5-0.1-122.8c0.2-51.3,1.8-123,0.7-178.8c69.8-5.6,139.5-10.1,209.3-13.5
	C1823.5,196,1818.3,244.3,1814,292.9z"/>
<path class="st1" d="M2447.9,175.3c55.6-17.7,112.1-33,170.2-39.4c0.8,55-2.2,110.3,6.3,164.9c-59.8,15.5-123,25.6-184.1,34.3
	C2443.2,282.2,2449.7,228.3,2447.9,175.3z"/>
<path class="st3" d="M2618.1,135.9c70.3-8.2,141.2-5,211.5,0.3c1.8,47.1,2.8,94.3,0.5,141.5c-69.6-5.6-138.6,5.7-205.8,23.1
	C2615.9,246.2,2618.9,190.9,2618.1,135.9z"/>
<path class="st0" d="M2440.9,333.4c65.3-9.2,121.6-17,184.1-32.7c7.3,52.7,11.6,105.5,10.4,158.7c-68.4,9.7-133.1,13.1-203.1,15.9
	c-70.1,2.9-145.6,5.4-216.8,2.8c1.2-44.1,7.1-89.4,15.8-132.7C2298.8,350.3,2375.7,342.6,2440.9,333.4z"/>
<path class="st1" d="M1614.2,461c63.2,0.5,126.2-4.8,189.4-6.2c-2.2,54.1-4,108.2-7.2,162.2c-63-3.1-126.1-4.8-189.2-6
	C1609.9,561,1612,511,1614.2,461z"/>
<path class="st2" d="M1803.7,454.8c64.2-1.3,128.2,2.8,192.2,6.5c1.2,51.9,3.3,103.8,3,155.7c-67.4-0.1-134.9,3.3-202.3,0.1
	C1799.6,563,1801.5,508.9,1803.7,454.8z"/>
<path class="st6" d="M1995.8,461.3c73.2,4.3,150.9,10.6,224.2,13.3c-1.3,44.7,3.3,97.7,4,142.4c-73.5-2.1-151.8,0-225.3,0
	C1999.1,565.1,1997.1,513.2,1995.8,461.3z"/>
<path class="st5" d="M2483,472.5c70.8-4.4,94-6.3,155-13.4c-6.9,56.2-15.1,111.5-15.8,167.8c-58-4-77.6-7-145.4-8.9
	c-67.8-1.9-178-3.2-254.5-5.8c-5.7-44.9-13.5-92.2-7-137.3C2294.9,479.9,2412.2,476.9,2483,472.5z"/>
<path class="st2" d="M2635,459.4c60.9-9.1,121.9-20.1,183.7-18c-3.9,56-6.5,112.1-10.1,168.1c-63.1,5-125.8,22.7-189.4,17.4
	C2624.6,571,2632.9,515.5,2635,459.4z"/>
<path class="st7" d="M2818.7,441.4c64.4,2.7,128,13.8,192.2,19.4c-1.1,50.8,8.6,100.9,11.5,151.4c-71.3,0-142.5-7.7-213.7-2.7
	C2812.2,553.5,2814.8,497.4,2818.7,441.4z"/>
<path class="st5" d="M3010.9,460.8c68.7,5.6,137.6,0.7,206.4,2.1c-0.6,49.6,0.5,99.3,0.7,148.9c-65.2-0.6-130.4,0.3-195.6,0.4
	C3019.4,561.6,3009.8,511.6,3010.9,460.8z"/>
</svg>
