<?xml version="1.0" encoding="utf-8"?>
<!-- Generator: Adobe Illustrator 27.2.0, SVG Export Plug-In . SVG Version: 6.00 Build 0)  -->
<svg version="1.1" id="Layer_1" xmlns="http://www.w3.org/2000/svg" xmlns:xlink="http://www.w3.org/1999/xlink" x="0px" y="0px"
	 viewBox="0 0 627.9 3224.6" style="enable-background:new 0 0 627.9 3224.6;" xml:space="preserve">
<style type="text/css">
	.st0{fill-rule:evenodd;clip-rule:evenodd;fill:#228085;}
	.st1{fill-rule:evenodd;clip-rule:evenodd;fill:#D55151;}
	.st2{fill-rule:evenodd;clip-rule:evenodd;fill:#242C2D;}
	.st3{fill-rule:evenodd;clip-rule:evenodd;fill:#F4B943;}
	.st4{fill:#242C2D;}
	.st5{fill-rule:evenodd;clip-rule:evenodd;fill:#EADDCD;}
	.st6{fill-rule:evenodd;clip-rule:evenodd;fill:#5AA7B2;}
	.st7{fill-rule:evenodd;clip-rule:evenodd;fill:#1A9E78;}
</style>
<g id="Patterns">
	<g id="Mohaka">
		<g id="Shape" transform="translate(-10.000000, -19.000000)">
			<path class="st0" d="M25.2,1636.4c-3.6-74.2-13.9-147.9-14.9-222.2c48.9,3.7,97.9,4.8,146.9,7.7c4.8,71.8,17.9,142.8,19.7,214.8
				C126.4,1637.7,75.8,1637.2,25.2,1636.4z"/>
			<path class="st1" d="M21.8,1206.1c8-63.7,8.9-113.7,5.2-175.1c53-1.7,106-7.7,159.2-8.9c2.5,65.9-7.9,125.8-17.7,192
				c-9.8,66.2-16,139.3-11.2,207.5c-49-2.5-98.1-2.7-146.8-8.2C8.9,1346.6,13.8,1269.7,21.8,1206.1z"/>
			<path class="st2" d="M26.8,1031.8c-5.6-67.5-3-135-2.1-202.7c50.3,0.2,100.6-0.7,151-0.6c1.2,64.7,7,129.2,10.5,193.9
				C132.9,1023.3,80,1028.4,26.8,1031.8z"/>
			<path class="st3" d="M24.7,829.2c0.8-66.5,4.9-132.9,0.2-199.3c48.8-1.9,97.7-4.2,146.6-3.4c3.9,67.3,3,134.7,4.2,202.1
				C125.4,828.5,75.1,829.4,24.7,829.2z"/>
			<path class="st1" d="M24.9,629.8c-5.3-73.4-10.5-146.7-9.7-220.4c49.7,2.8,99.3,5,149,8.4c-2.6,69.6,3.1,139.1,7.3,208.5
				C122.6,625.6,73.7,627.9,24.9,629.8z"/>
			<path class="st4" d="M180.2,215.5c50.7,3.6,100.9,11.8,151.5,16.4c-7,66.5-16.4,132.9-17.6,199.9c-49.9-4.4-100-10.3-149.9-13.8
				s-99.3-5.6-149.1-8.4C16,342.3,24,275.5,27.8,208.4C78.6,211.1,129.5,212,180.2,215.5z"/>
			<path class="st3" d="M27.9,208.3C31,146,19.8,84.3,21,22c54.4-1.3,108.8-4.2,163.3-2.4c-1.2,65.3,0.5,130.7-4,195.9
				C129.5,212,78.6,211.1,27.9,208.3z"/>
			<path class="st3" d="M350.4,1436.4c53.6,2.8,78.1,2.7,125.1,3.3c0.7,65.8,2.2,131.3,4.7,197.1c-45,0-61.9,0-113.8-0.3
				s-133.3-1.1-191.3,0.3c-4.3-71.9-17.1-143.1-19.4-214.8C215.1,1425.8,296.9,1433.6,350.4,1436.4z"/>
			<path class="st0" d="M493.1,1439.1c-53,1.4-127.7,0-182.7-4.9c-54.9-4.9-100.8-8.7-153.6-12.3c-3.6-70.2,2.3-140.2,11.4-210
				c51.8,6.2,95.7,13.1,149.1,24.1s127.7,14.9,180.8,9.8s89.8-11.5,138.9-20c-13.2,68-10.5,137.1-8.4,205.8
				C579.7,1433.8,546,1437.7,493.1,1439.1z"/>
			<path class="st5" d="M324.3,805.4c0.7,67.5,23.7,163.6,23.6,235.2s-25.8,127.6-34.3,195.3c-48-10.3-96.1-19.3-144.8-23.1
				c8.8-65.8,21-125.3,17.5-194.1S172,861.3,171.5,795.6s3.1-109.5,0-170.6c48.8,2.9,97.5,8.7,146.1,12
				C320.6,698.8,323.6,737.9,324.3,805.4z"/>
			<path class="st6" d="M314.7,431.8c50.8,4.4,103,6.5,154.2,4.9c-6.2,72-12.2,144.2-12.1,216.6c-47.4-1-92.5-7.5-139.8-14.3
				s-97.2-11.6-145.4-12.5c-4.5-69.4-9.8-138.9-7.6-208.5C214.6,421.5,263.9,427.3,314.7,431.8z"/>
			<path class="st1" d="M361,27.5c50.4,1,75.3-3.2,120.4-5.9c-3.2,69.8-0.8,139.6-1.6,209.6c-46,1.5-72.9,4.9-123.7,2.2
				c-50.9-2.6-119.8-13.9-174.8-17.9c2.8-65.3,0.9-130.7,4.1-196C240.3,21.7,310.5,26.5,361,27.5z"/>
			<path class="st2" d="M311.6,1235.5c8.7-64.4,34.1-129.8,34.5-195.5c54.7,9.8,111.8,18.5,167.3,14.7
				c-7.6,65.2-26.8,128.2-38.2,192.8C420.9,1249.9,364.9,1245.5,311.6,1235.5z"/>
			<path class="st1" d="M485.8,863c16.4,62.9,34.4,126.1,27.6,191.8c-55.7,2.4-110.8,1.3-165.4-12.4
				c-0.1-72.4-22.8-160.1-23.6-228.2s-3.6-113.4-6.8-177c46.2,10.1,92.3,14.4,139.3,15.7c47.1,1.3,94.8-4.7,141.6-10.1
				c-1.5,62.2,8.9,124.4,35.1,181C584.3,838.8,537.9,860.3,485.8,863z"/>
			<path class="st0" d="M478.5,231.2c48.4-3.1,110.7-13.9,159-16c0.9,69.9-0.7,146.8-10.1,216.6c-51.4,2.1-106.9,3.3-158.4,4.9
				s-103.3-0.5-154.7-4.9c1.2-67,10.5-133.3,17.6-199.9C380.4,236.1,430.1,234.2,478.5,231.2z"/>
			<path class="st5" d="M478.8,231.2c2.3-69.8,0.2-139.7,1.5-209.5c51.8-4.2,103,1.8,154.5,5.8c-10.9,63.3-13.5,127.2-12.8,191.4
				C574.2,221,526.7,228,478.8,231.2z"/>
		</g>
	</g>
</g>
<path class="st3" d="M480.1,1824.1c47.8,1.2,94.2-5,141.2-1.9c4.1,75.9,1.2,176.1-13.4,244.4c-14.6,68.4-26.3,106-32.5,169.4
	c-49.5,6.7-101,19.7-151.7,14.2c-1.3-46.4,14.5-112.3,24.8-151.5c10.3-39.1,8.1-31.5,15.7-63c-48.5-1.8-93.8-18.6-141.2-26.4
	c13.2-64.5,16.2-130,12.2-195.6C383,1818.8,432.4,1822.9,480.1,1824.1z"/>
<path class="st7" d="M321.9,2009.2c49.4,9,95.4,19.7,144.6,24.3c-15.5,71.4-39.1,142.3-42,215.8c51.7-0.2,101.4-2.3,151.4-15.8
	c-3.2,68.4,11.7,132,40.1,194.1c-52.5,15.2-108.9,18.5-162.9,20.1c-54,1.6-106.1-1.2-159.6-6.7c-6.6-41.9-12.3-102-13.7-139.1
	c-1.4-37.1,0.1-39.5,0.5-70.4c-43.4-5-86.6-15.5-130.6-16.4c2.9-73.4,12.2-146.1,17-219.3C218,1994.6,272.5,2000.2,321.9,2009.2z"/>
<path class="st6" d="M292.4,3026.8c-79.6-12.1-65.6-12.7-131.5-12.6c15.8-51.8,9.8-54.8,19.3-118.5c9.6-63.7-2.3-199.2-19.3-271.6
	c53.5-6.7,113.8,11.3,166.4,0c17.3,67.7,28.7,136.4,23,206.1c92.4,4.4,184.1-3.6,276.7-7.3c-13.4,69.1,5.5,140.1-3.9,209.1
	C528.8,3043.6,371.9,3038.8,292.4,3026.8z"/>
<path class="st1" d="M283.7,3024.9c51.6,8.1,132.2,11.7,188.2,10.9s102.4-0.7,156-3.2c-0.4,64.2-2.4,128.1-13.1,191.4
	c-52.8-3.4-102-4.7-156.4-3.1c-54.4,1.5-128.4,5.9-178.5,2.2c-50-3.7-71.7-4.4-116-5.9c3.1-68.8-1.5-137.5,2-206.5
	C211.6,3014,232.1,3016.8,283.7,3024.9z"/>
<path class="st6" d="M335,1814c4.3,65.4,1.1,131-12.1,195.4c-51.6-9.3-103.9-14.4-156.3-13.6c3.3-63.7,8.1-128,6.3-191.7
	s-5.3-126.4-7.3-189.9c46.1,1.7,71.5-0.3,122.8-0.1c51.3,0.2,123,1.8,178.8,0.7c5.6,69.8,10.1,139.5,13.5,209.3
	C431.8,1823.5,383.6,1818.3,335,1814z"/>
<path class="st1" d="M452.6,2447.9c17.7,55.6,33,112.1,39.4,170.2c-55,0.8-110.3-2.2-164.9,6.3c-15.5-59.8-25.6-123-34.3-184.1
	C345.7,2443.2,399.6,2449.7,452.6,2447.9z"/>
<path class="st3" d="M492,2618.1c8.2,70.3,5,141.2-0.3,211.5c-47.1,1.8-94.3,2.8-141.5,0.5c5.6-69.6-5.7-138.6-23.1-205.8
	C381.7,2615.9,437,2618.9,492,2618.1z"/>
<path class="st0" d="M294.5,2440.9c9.2,65.3,17,121.6,32.7,184.1c-52.7,7.3-105.5,11.6-158.7,10.4c-9.7-68.4-13.1-133.1-15.9-203.1
	c-2.9-70.1-5.4-145.6-2.8-216.8c44.1,1.2,89.4,7.1,132.7,15.8C277.6,2298.8,285.3,2375.7,294.5,2440.9z"/>
<path class="st1" d="M166.9,1614.2c-0.5,63.2,4.8,126.2,6.2,189.4c-54.1-2.2-108.2-4-162.2-7.2c3.1-63,4.8-126.1,6-189.2
	C66.8,1609.9,116.8,1612,166.9,1614.2z"/>
<path class="st2" d="M173,1803.7c1.3,64.2-2.8,128.2-6.5,192.2c-51.9,1.2-103.8,3.3-155.7,3c0.1-67.4-3.3-134.9-0.1-202.3
	C64.9,1799.6,118.9,1801.5,173,1803.7z"/>
<path class="st6" d="M166.5,1995.8c-4.3,73.2-10.6,150.9-13.3,224.2c-44.7-1.3-97.7,3.3-142.4,4c2.1-73.5,0-151.8,0-225.3
	C62.8,1999.1,114.7,1997.1,166.5,1995.8z"/>
<path class="st5" d="M155.3,2483c4.4,70.8,6.3,94,13.4,155c-56.2-6.9-111.5-15.1-167.8-15.8c4-58,7-77.6,8.9-145.4
	c1.9-67.8,3.2-178,5.8-254.5c44.9-5.7,92.2-13.5,137.3-7C148,2294.9,151,2412.2,155.3,2483z"/>
<path class="st2" d="M168.5,2635c9.1,60.9,20.1,121.9,18,183.7c-56-3.9-112.1-6.5-168.1-10.1c-5-63.1-22.7-125.8-17.4-189.4
	C56.8,2624.6,112.4,2632.9,168.5,2635z"/>
<path class="st7" d="M186.5,2818.7c-2.7,64.4-13.8,128-19.4,192.2c-50.8-1.1-100.9,8.6-151.4,11.5c0-71.3,7.7-142.5,2.7-213.7
	C74.4,2812.2,130.5,2814.8,186.5,2818.7z"/>
<path class="st5" d="M167.1,3010.9c-5.6,68.7-0.7,137.6-2.1,206.4c-49.6-0.6-99.3,0.5-148.9,0.7c0.6-65.2-0.3-130.4-0.4-195.6
	C66.2,3019.4,116.3,3009.8,167.1,3010.9z"/>
</svg>
